%TF.GenerationSoftware,KiCad,Pcbnew,5.1.9*%
%TF.CreationDate,2021-02-27T11:03:33+05:30*%
%TF.ProjectId,charger,63686172-6765-4722-9e6b-696361645f70,rev?*%
%TF.SameCoordinates,Original*%
%TF.FileFunction,Legend,Top*%
%TF.FilePolarity,Positive*%
%FSLAX46Y46*%
G04 Gerber Fmt 4.6, Leading zero omitted, Abs format (unit mm)*
G04 Created by KiCad (PCBNEW 5.1.9) date 2021-02-27 11:03:33*
%MOMM*%
%LPD*%
G01*
G04 APERTURE LIST*
%ADD10C,0.100000*%
%ADD11C,0.127000*%
%ADD12C,0.120000*%
%ADD13C,0.200000*%
%ADD14C,0.015000*%
%ADD15C,0.150000*%
G04 APERTURE END LIST*
D10*
%TO.C,T1*%
X134696200Y-62839600D02*
G75*
G03*
X134696200Y-62839600I-698500J0D01*
G01*
D11*
X151892000Y-59690000D02*
X151892000Y-80010000D01*
X127508000Y-59690000D02*
X127508000Y-80010000D01*
X127508000Y-80010000D02*
X151892000Y-80010000D01*
X127508000Y-59690000D02*
X151892000Y-59690000D01*
%TO.C,C5*%
X130330000Y-98690000D02*
X131290000Y-98690000D01*
X130330000Y-96890000D02*
X131290000Y-96890000D01*
D12*
%TO.C,U2*%
X130810000Y-85430000D02*
X132310000Y-85430000D01*
X130810000Y-85430000D02*
X129310000Y-85430000D01*
X130810000Y-82210000D02*
X132310000Y-82210000D01*
X130810000Y-82210000D02*
X127935000Y-82210000D01*
D11*
%TO.C,C4*%
X137950000Y-98690000D02*
X138910000Y-98690000D01*
X137950000Y-96890000D02*
X138910000Y-96890000D01*
D13*
%TO.C,J1*%
X108060000Y-78490000D02*
X116610000Y-78490000D01*
X116610000Y-91690000D02*
X108060000Y-91690000D01*
X108060000Y-91690000D02*
X108060000Y-78490000D01*
X122960000Y-80340000D02*
G75*
G03*
X122960000Y-80340000I-100000J0D01*
G01*
X121760000Y-79440000D02*
X121760000Y-80790000D01*
X121760000Y-89390000D02*
X121760000Y-90740000D01*
D11*
%TO.C,R1*%
X152036000Y-88446000D02*
X156076000Y-88446000D01*
X152036000Y-91646000D02*
X156076000Y-91646000D01*
D12*
%TO.C,U1*%
X127370000Y-94320000D02*
X129170000Y-94320000D01*
X129170000Y-91100000D02*
X126720000Y-91100000D01*
%TO.C,R3*%
X149253641Y-82930000D02*
X148946359Y-82930000D01*
X149253641Y-82170000D02*
X148946359Y-82170000D01*
%TO.C,R2*%
X145942936Y-88350000D02*
X147397064Y-88350000D01*
X145942936Y-90170000D02*
X147397064Y-90170000D01*
%TO.C,Q1*%
X159890000Y-94270000D02*
X163490000Y-94270000D01*
X163528478Y-94258478D02*
G75*
G03*
X161690000Y-89820000I-1838478J1838478D01*
G01*
X159851522Y-94258478D02*
G75*
G02*
X161690000Y-89820000I1838478J1838478D01*
G01*
%TO.C,P1*%
X167580000Y-83820000D02*
X170240000Y-83820000D01*
X167580000Y-83820000D02*
X167580000Y-86420000D01*
X167580000Y-86420000D02*
X170240000Y-86420000D01*
X170240000Y-83820000D02*
X170240000Y-86420000D01*
X170240000Y-81220000D02*
X170240000Y-82550000D01*
X168910000Y-81220000D02*
X170240000Y-81220000D01*
%TO.C,D4*%
X142430000Y-87335000D02*
X133745000Y-87335000D01*
X133745000Y-87335000D02*
X133745000Y-93005000D01*
X133745000Y-93005000D02*
X142430000Y-93005000D01*
%TO.C,D3*%
X156360000Y-83400000D02*
X158600000Y-83400000D01*
X158600000Y-83400000D02*
X158600000Y-79160000D01*
X158600000Y-79160000D02*
X156360000Y-79160000D01*
X156360000Y-79160000D02*
X156360000Y-83400000D01*
X157480000Y-84050000D02*
X157480000Y-83400000D01*
X157480000Y-78510000D02*
X157480000Y-79160000D01*
X156360000Y-82680000D02*
X158600000Y-82680000D01*
X156360000Y-82560000D02*
X158600000Y-82560000D01*
X156360000Y-82800000D02*
X158600000Y-82800000D01*
%TO.C,D2*%
X159820000Y-84000000D02*
X162760000Y-84000000D01*
X162760000Y-84000000D02*
X162760000Y-78560000D01*
X162760000Y-78560000D02*
X159820000Y-78560000D01*
X159820000Y-78560000D02*
X159820000Y-84000000D01*
X161290000Y-85020000D02*
X161290000Y-84000000D01*
X161290000Y-77540000D02*
X161290000Y-78560000D01*
X159820000Y-83100000D02*
X162760000Y-83100000D01*
X159820000Y-82980000D02*
X162760000Y-82980000D01*
X159820000Y-83220000D02*
X162760000Y-83220000D01*
%TO.C,D1*%
X163630000Y-84000000D02*
X166570000Y-84000000D01*
X166570000Y-84000000D02*
X166570000Y-78560000D01*
X166570000Y-78560000D02*
X163630000Y-78560000D01*
X163630000Y-78560000D02*
X163630000Y-84000000D01*
X165100000Y-85020000D02*
X165100000Y-84000000D01*
X165100000Y-77540000D02*
X165100000Y-78560000D01*
X163630000Y-83100000D02*
X166570000Y-83100000D01*
X163630000Y-82980000D02*
X166570000Y-82980000D01*
X163630000Y-83220000D02*
X166570000Y-83220000D01*
%TO.C,C3*%
X150989420Y-93470000D02*
X151270580Y-93470000D01*
X150989420Y-94490000D02*
X151270580Y-94490000D01*
%TO.C,C2*%
X149918748Y-84355000D02*
X150441252Y-84355000D01*
X149918748Y-85825000D02*
X150441252Y-85825000D01*
%TO.C,C1*%
X143257631Y-94505000D02*
X146302369Y-94505000D01*
X143257631Y-101075000D02*
X146302369Y-101075000D01*
%TO.C,T1*%
D14*
X131521333Y-57399333D02*
X132321333Y-57399333D01*
X131921333Y-58799333D02*
X131921333Y-57399333D01*
X133521333Y-58799333D02*
X132721333Y-58799333D01*
X133121333Y-58799333D02*
X133121333Y-57399333D01*
X132988000Y-57599333D01*
X132854666Y-57732666D01*
X132721333Y-57799333D01*
%TO.C,C5*%
X129684383Y-96430607D02*
X129665635Y-96449355D01*
X129609392Y-96468102D01*
X129571897Y-96468102D01*
X129515654Y-96449355D01*
X129478158Y-96411859D01*
X129459411Y-96374364D01*
X129440663Y-96299373D01*
X129440663Y-96243130D01*
X129459411Y-96168140D01*
X129478158Y-96130644D01*
X129515654Y-96093149D01*
X129571897Y-96074401D01*
X129609392Y-96074401D01*
X129665635Y-96093149D01*
X129684383Y-96111897D01*
X130040588Y-96074401D02*
X129853112Y-96074401D01*
X129834364Y-96261878D01*
X129853112Y-96243130D01*
X129890607Y-96224383D01*
X129984345Y-96224383D01*
X130021841Y-96243130D01*
X130040588Y-96261878D01*
X130059336Y-96299373D01*
X130059336Y-96393112D01*
X130040588Y-96430607D01*
X130021841Y-96449355D01*
X129984345Y-96468102D01*
X129890607Y-96468102D01*
X129853112Y-96449355D01*
X129834364Y-96430607D01*
%TO.C,U2*%
D15*
X130048095Y-80822380D02*
X130048095Y-81631904D01*
X130095714Y-81727142D01*
X130143333Y-81774761D01*
X130238571Y-81822380D01*
X130429047Y-81822380D01*
X130524285Y-81774761D01*
X130571904Y-81727142D01*
X130619523Y-81631904D01*
X130619523Y-80822380D01*
X131048095Y-80917619D02*
X131095714Y-80870000D01*
X131190952Y-80822380D01*
X131429047Y-80822380D01*
X131524285Y-80870000D01*
X131571904Y-80917619D01*
X131619523Y-81012857D01*
X131619523Y-81108095D01*
X131571904Y-81250952D01*
X131000476Y-81822380D01*
X131619523Y-81822380D01*
%TO.C,C4*%
D14*
X137304383Y-96430607D02*
X137285635Y-96449355D01*
X137229392Y-96468102D01*
X137191897Y-96468102D01*
X137135654Y-96449355D01*
X137098158Y-96411859D01*
X137079411Y-96374364D01*
X137060663Y-96299373D01*
X137060663Y-96243130D01*
X137079411Y-96168140D01*
X137098158Y-96130644D01*
X137135654Y-96093149D01*
X137191897Y-96074401D01*
X137229392Y-96074401D01*
X137285635Y-96093149D01*
X137304383Y-96111897D01*
X137641841Y-96205635D02*
X137641841Y-96468102D01*
X137548102Y-96055654D02*
X137454364Y-96336869D01*
X137698084Y-96336869D01*
%TO.C,H4*%
D15*
X119888095Y-59932380D02*
X119888095Y-58932380D01*
X119888095Y-59408571D02*
X120459523Y-59408571D01*
X120459523Y-59932380D02*
X120459523Y-58932380D01*
X121364285Y-59265714D02*
X121364285Y-59932380D01*
X121126190Y-58884761D02*
X120888095Y-59599047D01*
X121507142Y-59599047D01*
%TO.C,H3*%
X165608095Y-94222380D02*
X165608095Y-93222380D01*
X165608095Y-93698571D02*
X166179523Y-93698571D01*
X166179523Y-94222380D02*
X166179523Y-93222380D01*
X166560476Y-93222380D02*
X167179523Y-93222380D01*
X166846190Y-93603333D01*
X166989047Y-93603333D01*
X167084285Y-93650952D01*
X167131904Y-93698571D01*
X167179523Y-93793809D01*
X167179523Y-94031904D01*
X167131904Y-94127142D01*
X167084285Y-94174761D01*
X166989047Y-94222380D01*
X166703333Y-94222380D01*
X166608095Y-94174761D01*
X166560476Y-94127142D01*
%TO.C,H2*%
X119888095Y-98032380D02*
X119888095Y-97032380D01*
X119888095Y-97508571D02*
X120459523Y-97508571D01*
X120459523Y-98032380D02*
X120459523Y-97032380D01*
X120888095Y-97127619D02*
X120935714Y-97080000D01*
X121030952Y-97032380D01*
X121269047Y-97032380D01*
X121364285Y-97080000D01*
X121411904Y-97127619D01*
X121459523Y-97222857D01*
X121459523Y-97318095D01*
X121411904Y-97460952D01*
X120840476Y-98032380D01*
X121459523Y-98032380D01*
%TO.C,H1*%
X163068095Y-61202380D02*
X163068095Y-60202380D01*
X163068095Y-60678571D02*
X163639523Y-60678571D01*
X163639523Y-61202380D02*
X163639523Y-60202380D01*
X164639523Y-61202380D02*
X164068095Y-61202380D01*
X164353809Y-61202380D02*
X164353809Y-60202380D01*
X164258571Y-60345238D01*
X164163333Y-60440476D01*
X164068095Y-60488095D01*
%TO.C,J1*%
D14*
X125697380Y-82098333D02*
X126411666Y-82098333D01*
X126554523Y-82145952D01*
X126649761Y-82241190D01*
X126697380Y-82384047D01*
X126697380Y-82479285D01*
X126697380Y-81098333D02*
X126697380Y-81669761D01*
X126697380Y-81384047D02*
X125697380Y-81384047D01*
X125840238Y-81479285D01*
X125935476Y-81574523D01*
X125983095Y-81669761D01*
%TO.C,R1*%
X151380383Y-88024102D02*
X151249149Y-87836626D01*
X151155411Y-88024102D02*
X151155411Y-87630401D01*
X151305392Y-87630401D01*
X151342887Y-87649149D01*
X151361635Y-87667897D01*
X151380383Y-87705392D01*
X151380383Y-87761635D01*
X151361635Y-87799130D01*
X151342887Y-87817878D01*
X151305392Y-87836626D01*
X151155411Y-87836626D01*
X151755336Y-88024102D02*
X151530364Y-88024102D01*
X151642850Y-88024102D02*
X151642850Y-87630401D01*
X151605355Y-87686644D01*
X151567859Y-87724140D01*
X151530364Y-87742887D01*
%TO.C,U1*%
D15*
X127508095Y-89262380D02*
X127508095Y-90071904D01*
X127555714Y-90167142D01*
X127603333Y-90214761D01*
X127698571Y-90262380D01*
X127889047Y-90262380D01*
X127984285Y-90214761D01*
X128031904Y-90167142D01*
X128079523Y-90071904D01*
X128079523Y-89262380D01*
X129079523Y-90262380D02*
X128508095Y-90262380D01*
X128793809Y-90262380D02*
X128793809Y-89262380D01*
X128698571Y-89405238D01*
X128603333Y-89500476D01*
X128508095Y-89548095D01*
%TO.C,R3*%
X148933333Y-84172380D02*
X148600000Y-83696190D01*
X148361904Y-84172380D02*
X148361904Y-83172380D01*
X148742857Y-83172380D01*
X148838095Y-83220000D01*
X148885714Y-83267619D01*
X148933333Y-83362857D01*
X148933333Y-83505714D01*
X148885714Y-83600952D01*
X148838095Y-83648571D01*
X148742857Y-83696190D01*
X148361904Y-83696190D01*
X149266666Y-83172380D02*
X149885714Y-83172380D01*
X149552380Y-83553333D01*
X149695238Y-83553333D01*
X149790476Y-83600952D01*
X149838095Y-83648571D01*
X149885714Y-83743809D01*
X149885714Y-83981904D01*
X149838095Y-84077142D01*
X149790476Y-84124761D01*
X149695238Y-84172380D01*
X149409523Y-84172380D01*
X149314285Y-84124761D01*
X149266666Y-84077142D01*
%TO.C,R2*%
X146503333Y-87892380D02*
X146170000Y-87416190D01*
X145931904Y-87892380D02*
X145931904Y-86892380D01*
X146312857Y-86892380D01*
X146408095Y-86940000D01*
X146455714Y-86987619D01*
X146503333Y-87082857D01*
X146503333Y-87225714D01*
X146455714Y-87320952D01*
X146408095Y-87368571D01*
X146312857Y-87416190D01*
X145931904Y-87416190D01*
X146884285Y-86987619D02*
X146931904Y-86940000D01*
X147027142Y-86892380D01*
X147265238Y-86892380D01*
X147360476Y-86940000D01*
X147408095Y-86987619D01*
X147455714Y-87082857D01*
X147455714Y-87178095D01*
X147408095Y-87320952D01*
X146836666Y-87892380D01*
X147455714Y-87892380D01*
%TO.C,Q1*%
X161594761Y-89407619D02*
X161499523Y-89360000D01*
X161404285Y-89264761D01*
X161261428Y-89121904D01*
X161166190Y-89074285D01*
X161070952Y-89074285D01*
X161118571Y-89312380D02*
X161023333Y-89264761D01*
X160928095Y-89169523D01*
X160880476Y-88979047D01*
X160880476Y-88645714D01*
X160928095Y-88455238D01*
X161023333Y-88360000D01*
X161118571Y-88312380D01*
X161309047Y-88312380D01*
X161404285Y-88360000D01*
X161499523Y-88455238D01*
X161547142Y-88645714D01*
X161547142Y-88979047D01*
X161499523Y-89169523D01*
X161404285Y-89264761D01*
X161309047Y-89312380D01*
X161118571Y-89312380D01*
X162499523Y-89312380D02*
X161928095Y-89312380D01*
X162213809Y-89312380D02*
X162213809Y-88312380D01*
X162118571Y-88455238D01*
X162023333Y-88550476D01*
X161928095Y-88598095D01*
%TO.C,P1*%
X168171904Y-80232380D02*
X168171904Y-79232380D01*
X168552857Y-79232380D01*
X168648095Y-79280000D01*
X168695714Y-79327619D01*
X168743333Y-79422857D01*
X168743333Y-79565714D01*
X168695714Y-79660952D01*
X168648095Y-79708571D01*
X168552857Y-79756190D01*
X168171904Y-79756190D01*
X169695714Y-80232380D02*
X169124285Y-80232380D01*
X169410000Y-80232380D02*
X169410000Y-79232380D01*
X169314761Y-79375238D01*
X169219523Y-79470476D01*
X169124285Y-79518095D01*
%TO.C,D4*%
X137691904Y-87102380D02*
X137691904Y-86102380D01*
X137930000Y-86102380D01*
X138072857Y-86150000D01*
X138168095Y-86245238D01*
X138215714Y-86340476D01*
X138263333Y-86530952D01*
X138263333Y-86673809D01*
X138215714Y-86864285D01*
X138168095Y-86959523D01*
X138072857Y-87054761D01*
X137930000Y-87102380D01*
X137691904Y-87102380D01*
X139120476Y-86435714D02*
X139120476Y-87102380D01*
X138882380Y-86054761D02*
X138644285Y-86769047D01*
X139263333Y-86769047D01*
%TO.C,D3*%
X155812380Y-82018095D02*
X154812380Y-82018095D01*
X154812380Y-81780000D01*
X154860000Y-81637142D01*
X154955238Y-81541904D01*
X155050476Y-81494285D01*
X155240952Y-81446666D01*
X155383809Y-81446666D01*
X155574285Y-81494285D01*
X155669523Y-81541904D01*
X155764761Y-81637142D01*
X155812380Y-81780000D01*
X155812380Y-82018095D01*
X154812380Y-81113333D02*
X154812380Y-80494285D01*
X155193333Y-80827619D01*
X155193333Y-80684761D01*
X155240952Y-80589523D01*
X155288571Y-80541904D01*
X155383809Y-80494285D01*
X155621904Y-80494285D01*
X155717142Y-80541904D01*
X155764761Y-80589523D01*
X155812380Y-80684761D01*
X155812380Y-80970476D01*
X155764761Y-81065714D01*
X155717142Y-81113333D01*
X156132380Y-85351904D02*
X155132380Y-85351904D01*
X156132380Y-84780476D02*
X155560952Y-85209047D01*
X155132380Y-84780476D02*
X155703809Y-85351904D01*
%TO.C,D2*%
X159272380Y-82018095D02*
X158272380Y-82018095D01*
X158272380Y-81780000D01*
X158320000Y-81637142D01*
X158415238Y-81541904D01*
X158510476Y-81494285D01*
X158700952Y-81446666D01*
X158843809Y-81446666D01*
X159034285Y-81494285D01*
X159129523Y-81541904D01*
X159224761Y-81637142D01*
X159272380Y-81780000D01*
X159272380Y-82018095D01*
X158367619Y-81065714D02*
X158320000Y-81018095D01*
X158272380Y-80922857D01*
X158272380Y-80684761D01*
X158320000Y-80589523D01*
X158367619Y-80541904D01*
X158462857Y-80494285D01*
X158558095Y-80494285D01*
X158700952Y-80541904D01*
X159272380Y-81113333D01*
X159272380Y-80494285D01*
X159642380Y-86621904D02*
X158642380Y-86621904D01*
X159642380Y-86050476D02*
X159070952Y-86479047D01*
X158642380Y-86050476D02*
X159213809Y-86621904D01*
%TO.C,D1*%
X163082380Y-82018095D02*
X162082380Y-82018095D01*
X162082380Y-81780000D01*
X162130000Y-81637142D01*
X162225238Y-81541904D01*
X162320476Y-81494285D01*
X162510952Y-81446666D01*
X162653809Y-81446666D01*
X162844285Y-81494285D01*
X162939523Y-81541904D01*
X163034761Y-81637142D01*
X163082380Y-81780000D01*
X163082380Y-82018095D01*
X163082380Y-80494285D02*
X163082380Y-81065714D01*
X163082380Y-80780000D02*
X162082380Y-80780000D01*
X162225238Y-80875238D01*
X162320476Y-80970476D01*
X162368095Y-81065714D01*
X163452380Y-86621904D02*
X162452380Y-86621904D01*
X163452380Y-86050476D02*
X162880952Y-86479047D01*
X162452380Y-86050476D02*
X163023809Y-86621904D01*
%TO.C,C3*%
X150963333Y-92907142D02*
X150915714Y-92954761D01*
X150772857Y-93002380D01*
X150677619Y-93002380D01*
X150534761Y-92954761D01*
X150439523Y-92859523D01*
X150391904Y-92764285D01*
X150344285Y-92573809D01*
X150344285Y-92430952D01*
X150391904Y-92240476D01*
X150439523Y-92145238D01*
X150534761Y-92050000D01*
X150677619Y-92002380D01*
X150772857Y-92002380D01*
X150915714Y-92050000D01*
X150963333Y-92097619D01*
X151296666Y-92002380D02*
X151915714Y-92002380D01*
X151582380Y-92383333D01*
X151725238Y-92383333D01*
X151820476Y-92430952D01*
X151868095Y-92478571D01*
X151915714Y-92573809D01*
X151915714Y-92811904D01*
X151868095Y-92907142D01*
X151820476Y-92954761D01*
X151725238Y-93002380D01*
X151439523Y-93002380D01*
X151344285Y-92954761D01*
X151296666Y-92907142D01*
%TO.C,C2*%
X150013333Y-83767142D02*
X149965714Y-83814761D01*
X149822857Y-83862380D01*
X149727619Y-83862380D01*
X149584761Y-83814761D01*
X149489523Y-83719523D01*
X149441904Y-83624285D01*
X149394285Y-83433809D01*
X149394285Y-83290952D01*
X149441904Y-83100476D01*
X149489523Y-83005238D01*
X149584761Y-82910000D01*
X149727619Y-82862380D01*
X149822857Y-82862380D01*
X149965714Y-82910000D01*
X150013333Y-82957619D01*
X150394285Y-82957619D02*
X150441904Y-82910000D01*
X150537142Y-82862380D01*
X150775238Y-82862380D01*
X150870476Y-82910000D01*
X150918095Y-82957619D01*
X150965714Y-83052857D01*
X150965714Y-83148095D01*
X150918095Y-83290952D01*
X150346666Y-83862380D01*
X150965714Y-83862380D01*
%TO.C,C1*%
X144613333Y-93897142D02*
X144565714Y-93944761D01*
X144422857Y-93992380D01*
X144327619Y-93992380D01*
X144184761Y-93944761D01*
X144089523Y-93849523D01*
X144041904Y-93754285D01*
X143994285Y-93563809D01*
X143994285Y-93420952D01*
X144041904Y-93230476D01*
X144089523Y-93135238D01*
X144184761Y-93040000D01*
X144327619Y-92992380D01*
X144422857Y-92992380D01*
X144565714Y-93040000D01*
X144613333Y-93087619D01*
X145565714Y-93992380D02*
X144994285Y-93992380D01*
X145280000Y-93992380D02*
X145280000Y-92992380D01*
X145184761Y-93135238D01*
X145089523Y-93230476D01*
X144994285Y-93278095D01*
%TD*%
M02*
