%TF.GenerationSoftware,KiCad,Pcbnew,5.1.9*%
%TF.CreationDate,2021-02-27T11:03:33+05:30*%
%TF.ProjectId,charger,63686172-6765-4722-9e6b-696361645f70,rev?*%
%TF.SameCoordinates,Original*%
%TF.FileFunction,Copper,L1,Top*%
%TF.FilePolarity,Positive*%
%FSLAX46Y46*%
G04 Gerber Fmt 4.6, Leading zero omitted, Abs format (unit mm)*
G04 Created by KiCad (PCBNEW 5.1.9) date 2021-02-27 11:03:33*
%MOMM*%
%LPD*%
G01*
G04 APERTURE LIST*
%TA.AperFunction,ComponentPad*%
%ADD10C,2.095500*%
%TD*%
%TA.AperFunction,ComponentPad*%
%ADD11R,2.095500X2.095500*%
%TD*%
%TA.AperFunction,SMDPad,CuDef*%
%ADD12R,1.250000X1.820000*%
%TD*%
%TA.AperFunction,SMDPad,CuDef*%
%ADD13R,1.680000X1.880000*%
%TD*%
%TA.AperFunction,SMDPad,CuDef*%
%ADD14R,5.000000X2.500000*%
%TD*%
%TA.AperFunction,SMDPad,CuDef*%
%ADD15R,2.800000X0.900000*%
%TD*%
%TA.AperFunction,SMDPad,CuDef*%
%ADD16R,1.260000X3.310000*%
%TD*%
%TA.AperFunction,SMDPad,CuDef*%
%ADD17R,1.060000X0.650000*%
%TD*%
%TA.AperFunction,ComponentPad*%
%ADD18R,1.050000X1.500000*%
%TD*%
%TA.AperFunction,ComponentPad*%
%ADD19O,1.050000X1.500000*%
%TD*%
%TA.AperFunction,ComponentPad*%
%ADD20O,1.700000X1.700000*%
%TD*%
%TA.AperFunction,ComponentPad*%
%ADD21R,1.700000X1.700000*%
%TD*%
%TA.AperFunction,ComponentPad*%
%ADD22O,1.600000X1.600000*%
%TD*%
%TA.AperFunction,ComponentPad*%
%ADD23R,1.600000X1.600000*%
%TD*%
%TA.AperFunction,ComponentPad*%
%ADD24O,2.200000X2.200000*%
%TD*%
%TA.AperFunction,ComponentPad*%
%ADD25R,2.200000X2.200000*%
%TD*%
%TA.AperFunction,Conductor*%
%ADD26C,0.250000*%
%TD*%
G04 APERTURE END LIST*
D10*
%TO.P,T1,6*%
%TO.N,Net-(T1-Pad6)*%
X148196300Y-77355700D03*
%TO.P,T1,7*%
%TO.N,Net-(C4-Pad2)*%
X148196300Y-72351900D03*
%TO.P,T1,8*%
%TO.N,Net-(T1-Pad8)*%
X148196300Y-67348100D03*
%TO.P,T1,9*%
%TO.N,Net-(D4-Pad2)*%
X148196300Y-62344300D03*
%TO.P,T1,5*%
%TO.N,Net-(Q1-Pad3)*%
X131203700Y-76860400D03*
%TO.P,T1,4*%
%TO.N,Net-(C1-Pad2)*%
X131203700Y-73355200D03*
%TO.P,T1,3*%
%TO.N,N/C*%
X131203700Y-69850000D03*
%TO.P,T1,2*%
%TO.N,Net-(C1-Pad1)*%
X131203700Y-66344800D03*
D11*
%TO.P,T1,1*%
%TO.N,Net-(C2-Pad2)*%
X131203700Y-62839600D03*
%TD*%
D12*
%TO.P,C5,2*%
%TO.N,Net-(C4-Pad2)*%
X132240000Y-97790000D03*
%TO.P,C5,1*%
%TO.N,Net-(C5-Pad1)*%
X129380000Y-97790000D03*
%TD*%
D13*
%TO.P,U2,9*%
%TO.N,Net-(C4-Pad2)*%
X130810000Y-83820000D03*
%TO.P,U2,8*%
%TO.N,Net-(C4-Pad1)*%
%TA.AperFunction,SMDPad,CuDef*%
G36*
G01*
X132235000Y-82945000D02*
X132235000Y-82745000D01*
G75*
G02*
X132335000Y-82645000I100000J0D01*
G01*
X133585000Y-82645000D01*
G75*
G02*
X133685000Y-82745000I0J-100000D01*
G01*
X133685000Y-82945000D01*
G75*
G02*
X133585000Y-83045000I-100000J0D01*
G01*
X132335000Y-83045000D01*
G75*
G02*
X132235000Y-82945000I0J100000D01*
G01*
G37*
%TD.AperFunction*%
%TO.P,U2,7*%
%TO.N,Net-(U2-Pad7)*%
%TA.AperFunction,SMDPad,CuDef*%
G36*
G01*
X132235000Y-83595000D02*
X132235000Y-83395000D01*
G75*
G02*
X132335000Y-83295000I100000J0D01*
G01*
X133585000Y-83295000D01*
G75*
G02*
X133685000Y-83395000I0J-100000D01*
G01*
X133685000Y-83595000D01*
G75*
G02*
X133585000Y-83695000I-100000J0D01*
G01*
X132335000Y-83695000D01*
G75*
G02*
X132235000Y-83595000I0J100000D01*
G01*
G37*
%TD.AperFunction*%
%TO.P,U2,6*%
%TO.N,Net-(U2-Pad6)*%
%TA.AperFunction,SMDPad,CuDef*%
G36*
G01*
X132235000Y-84245000D02*
X132235000Y-84045000D01*
G75*
G02*
X132335000Y-83945000I100000J0D01*
G01*
X133585000Y-83945000D01*
G75*
G02*
X133685000Y-84045000I0J-100000D01*
G01*
X133685000Y-84245000D01*
G75*
G02*
X133585000Y-84345000I-100000J0D01*
G01*
X132335000Y-84345000D01*
G75*
G02*
X132235000Y-84245000I0J100000D01*
G01*
G37*
%TD.AperFunction*%
%TO.P,U2,5*%
%TO.N,Net-(C4-Pad1)*%
%TA.AperFunction,SMDPad,CuDef*%
G36*
G01*
X132235000Y-84895000D02*
X132235000Y-84695000D01*
G75*
G02*
X132335000Y-84595000I100000J0D01*
G01*
X133585000Y-84595000D01*
G75*
G02*
X133685000Y-84695000I0J-100000D01*
G01*
X133685000Y-84895000D01*
G75*
G02*
X133585000Y-84995000I-100000J0D01*
G01*
X132335000Y-84995000D01*
G75*
G02*
X132235000Y-84895000I0J100000D01*
G01*
G37*
%TD.AperFunction*%
%TO.P,U2,4*%
%TO.N,Net-(C4-Pad2)*%
%TA.AperFunction,SMDPad,CuDef*%
G36*
G01*
X127935000Y-84895000D02*
X127935000Y-84695000D01*
G75*
G02*
X128035000Y-84595000I100000J0D01*
G01*
X129285000Y-84595000D01*
G75*
G02*
X129385000Y-84695000I0J-100000D01*
G01*
X129385000Y-84895000D01*
G75*
G02*
X129285000Y-84995000I-100000J0D01*
G01*
X128035000Y-84995000D01*
G75*
G02*
X127935000Y-84895000I0J100000D01*
G01*
G37*
%TD.AperFunction*%
%TO.P,U2,3*%
%TO.N,Net-(U2-Pad3)*%
%TA.AperFunction,SMDPad,CuDef*%
G36*
G01*
X127935000Y-84245000D02*
X127935000Y-84045000D01*
G75*
G02*
X128035000Y-83945000I100000J0D01*
G01*
X129285000Y-83945000D01*
G75*
G02*
X129385000Y-84045000I0J-100000D01*
G01*
X129385000Y-84245000D01*
G75*
G02*
X129285000Y-84345000I-100000J0D01*
G01*
X128035000Y-84345000D01*
G75*
G02*
X127935000Y-84245000I0J100000D01*
G01*
G37*
%TD.AperFunction*%
%TO.P,U2,2*%
%TO.N,Net-(C5-Pad1)*%
%TA.AperFunction,SMDPad,CuDef*%
G36*
G01*
X127935000Y-83595000D02*
X127935000Y-83395000D01*
G75*
G02*
X128035000Y-83295000I100000J0D01*
G01*
X129285000Y-83295000D01*
G75*
G02*
X129385000Y-83395000I0J-100000D01*
G01*
X129385000Y-83595000D01*
G75*
G02*
X129285000Y-83695000I-100000J0D01*
G01*
X128035000Y-83695000D01*
G75*
G02*
X127935000Y-83595000I0J100000D01*
G01*
G37*
%TD.AperFunction*%
%TO.P,U2,1*%
%TA.AperFunction,SMDPad,CuDef*%
G36*
G01*
X127935000Y-82945000D02*
X127935000Y-82745000D01*
G75*
G02*
X128035000Y-82645000I100000J0D01*
G01*
X129285000Y-82645000D01*
G75*
G02*
X129385000Y-82745000I0J-100000D01*
G01*
X129385000Y-82945000D01*
G75*
G02*
X129285000Y-83045000I-100000J0D01*
G01*
X128035000Y-83045000D01*
G75*
G02*
X127935000Y-82945000I0J100000D01*
G01*
G37*
%TD.AperFunction*%
%TD*%
D12*
%TO.P,C4,2*%
%TO.N,Net-(C4-Pad2)*%
X139860000Y-97790000D03*
%TO.P,C4,1*%
%TO.N,Net-(C4-Pad1)*%
X137000000Y-97790000D03*
%TD*%
D14*
%TO.P,J1,S2*%
%TO.N,Net-(J1-PadS1)*%
X119710000Y-92340000D03*
%TO.P,J1,S1*%
X119710000Y-77840000D03*
D15*
%TO.P,J1,03*%
%TO.N,Net-(J1-Pad03)*%
X121960000Y-86090000D03*
%TO.P,J1,01*%
%TO.N,Net-(C5-Pad1)*%
X121960000Y-81590000D03*
%TO.P,J1,02*%
%TO.N,Net-(J1-Pad02)*%
X121960000Y-84090000D03*
%TO.P,J1,04*%
%TO.N,Net-(C4-Pad2)*%
X121960000Y-88590000D03*
%TD*%
D16*
%TO.P,R1,2*%
%TO.N,Net-(P1-Pad2)*%
X157031000Y-90046000D03*
%TO.P,R1,1*%
%TO.N,Net-(C1-Pad2)*%
X151081000Y-90046000D03*
%TD*%
D17*
%TO.P,U1,5*%
%TO.N,Net-(C5-Pad1)*%
X129370000Y-92710000D03*
%TO.P,U1,6*%
%TO.N,Net-(J1-Pad03)*%
X129370000Y-91760000D03*
%TO.P,U1,4*%
%TO.N,Net-(C4-Pad2)*%
X129370000Y-93660000D03*
%TO.P,U1,3*%
X127170000Y-93660000D03*
%TO.P,U1,2*%
X127170000Y-92710000D03*
%TO.P,U1,1*%
%TO.N,Net-(J1-Pad02)*%
X127170000Y-91760000D03*
%TD*%
%TO.P,R3,2*%
%TO.N,Net-(C2-Pad1)*%
%TA.AperFunction,SMDPad,CuDef*%
G36*
G01*
X148860000Y-82365000D02*
X148860000Y-82735000D01*
G75*
G02*
X148725000Y-82870000I-135000J0D01*
G01*
X148455000Y-82870000D01*
G75*
G02*
X148320000Y-82735000I0J135000D01*
G01*
X148320000Y-82365000D01*
G75*
G02*
X148455000Y-82230000I135000J0D01*
G01*
X148725000Y-82230000D01*
G75*
G02*
X148860000Y-82365000I0J-135000D01*
G01*
G37*
%TD.AperFunction*%
%TO.P,R3,1*%
%TO.N,Net-(C2-Pad2)*%
%TA.AperFunction,SMDPad,CuDef*%
G36*
G01*
X149880000Y-82365000D02*
X149880000Y-82735000D01*
G75*
G02*
X149745000Y-82870000I-135000J0D01*
G01*
X149475000Y-82870000D01*
G75*
G02*
X149340000Y-82735000I0J135000D01*
G01*
X149340000Y-82365000D01*
G75*
G02*
X149475000Y-82230000I135000J0D01*
G01*
X149745000Y-82230000D01*
G75*
G02*
X149880000Y-82365000I0J-135000D01*
G01*
G37*
%TD.AperFunction*%
%TD*%
%TO.P,R2,2*%
%TO.N,Net-(C2-Pad1)*%
%TA.AperFunction,SMDPad,CuDef*%
G36*
G01*
X147570000Y-89885002D02*
X147570000Y-88634998D01*
G75*
G02*
X147819998Y-88385000I249998J0D01*
G01*
X148445002Y-88385000D01*
G75*
G02*
X148695000Y-88634998I0J-249998D01*
G01*
X148695000Y-89885002D01*
G75*
G02*
X148445002Y-90135000I-249998J0D01*
G01*
X147819998Y-90135000D01*
G75*
G02*
X147570000Y-89885002I0J249998D01*
G01*
G37*
%TD.AperFunction*%
%TO.P,R2,1*%
%TO.N,Net-(C1-Pad1)*%
%TA.AperFunction,SMDPad,CuDef*%
G36*
G01*
X144645000Y-89885002D02*
X144645000Y-88634998D01*
G75*
G02*
X144894998Y-88385000I249998J0D01*
G01*
X145520002Y-88385000D01*
G75*
G02*
X145770000Y-88634998I0J-249998D01*
G01*
X145770000Y-89885002D01*
G75*
G02*
X145520002Y-90135000I-249998J0D01*
G01*
X144894998Y-90135000D01*
G75*
G02*
X144645000Y-89885002I0J249998D01*
G01*
G37*
%TD.AperFunction*%
%TD*%
D18*
%TO.P,Q1,1*%
%TO.N,Net-(C1-Pad2)*%
X160420000Y-92420000D03*
D19*
%TO.P,Q1,3*%
%TO.N,Net-(Q1-Pad3)*%
X162960000Y-92420000D03*
%TO.P,Q1,2*%
%TO.N,Net-(C2-Pad1)*%
X161690000Y-92420000D03*
%TD*%
D20*
%TO.P,P1,2*%
%TO.N,Net-(P1-Pad2)*%
X168910000Y-85090000D03*
D21*
%TO.P,P1,1*%
%TO.N,Net-(D1-Pad2)*%
X168910000Y-82550000D03*
%TD*%
%TO.P,D4,2*%
%TO.N,Net-(D4-Pad2)*%
%TA.AperFunction,SMDPad,CuDef*%
G36*
G01*
X140380000Y-92495001D02*
X140380000Y-87844999D01*
G75*
G02*
X140629999Y-87595000I249999J0D01*
G01*
X142605001Y-87595000D01*
G75*
G02*
X142855000Y-87844999I0J-249999D01*
G01*
X142855000Y-92495001D01*
G75*
G02*
X142605001Y-92745000I-249999J0D01*
G01*
X140629999Y-92745000D01*
G75*
G02*
X140380000Y-92495001I0J249999D01*
G01*
G37*
%TD.AperFunction*%
%TO.P,D4,1*%
%TO.N,Net-(C4-Pad1)*%
%TA.AperFunction,SMDPad,CuDef*%
G36*
G01*
X134005000Y-92495001D02*
X134005000Y-87844999D01*
G75*
G02*
X134254999Y-87595000I249999J0D01*
G01*
X136230001Y-87595000D01*
G75*
G02*
X136480000Y-87844999I0J-249999D01*
G01*
X136480000Y-92495001D01*
G75*
G02*
X136230001Y-92745000I-249999J0D01*
G01*
X134254999Y-92745000D01*
G75*
G02*
X134005000Y-92495001I0J249999D01*
G01*
G37*
%TD.AperFunction*%
%TD*%
D22*
%TO.P,D3,2*%
%TO.N,Net-(C3-Pad1)*%
X157480000Y-77470000D03*
D23*
%TO.P,D3,1*%
%TO.N,Net-(C2-Pad2)*%
X157480000Y-85090000D03*
%TD*%
D24*
%TO.P,D2,2*%
%TO.N,Net-(C3-Pad1)*%
X161290000Y-76200000D03*
D25*
%TO.P,D2,1*%
%TO.N,Net-(C2-Pad1)*%
X161290000Y-86360000D03*
%TD*%
D24*
%TO.P,D1,2*%
%TO.N,Net-(D1-Pad2)*%
X165100000Y-76200000D03*
D25*
%TO.P,D1,1*%
%TO.N,Net-(C1-Pad1)*%
X165100000Y-86360000D03*
%TD*%
%TO.P,C3,2*%
%TO.N,Net-(C1-Pad2)*%
%TA.AperFunction,SMDPad,CuDef*%
G36*
G01*
X151455000Y-94230000D02*
X151455000Y-93730000D01*
G75*
G02*
X151680000Y-93505000I225000J0D01*
G01*
X152130000Y-93505000D01*
G75*
G02*
X152355000Y-93730000I0J-225000D01*
G01*
X152355000Y-94230000D01*
G75*
G02*
X152130000Y-94455000I-225000J0D01*
G01*
X151680000Y-94455000D01*
G75*
G02*
X151455000Y-94230000I0J225000D01*
G01*
G37*
%TD.AperFunction*%
%TO.P,C3,1*%
%TO.N,Net-(C3-Pad1)*%
%TA.AperFunction,SMDPad,CuDef*%
G36*
G01*
X149905000Y-94230000D02*
X149905000Y-93730000D01*
G75*
G02*
X150130000Y-93505000I225000J0D01*
G01*
X150580000Y-93505000D01*
G75*
G02*
X150805000Y-93730000I0J-225000D01*
G01*
X150805000Y-94230000D01*
G75*
G02*
X150580000Y-94455000I-225000J0D01*
G01*
X150130000Y-94455000D01*
G75*
G02*
X149905000Y-94230000I0J225000D01*
G01*
G37*
%TD.AperFunction*%
%TD*%
%TO.P,C2,2*%
%TO.N,Net-(C2-Pad2)*%
%TA.AperFunction,SMDPad,CuDef*%
G36*
G01*
X150630000Y-85565000D02*
X150630000Y-84615000D01*
G75*
G02*
X150880000Y-84365000I250000J0D01*
G01*
X151380000Y-84365000D01*
G75*
G02*
X151630000Y-84615000I0J-250000D01*
G01*
X151630000Y-85565000D01*
G75*
G02*
X151380000Y-85815000I-250000J0D01*
G01*
X150880000Y-85815000D01*
G75*
G02*
X150630000Y-85565000I0J250000D01*
G01*
G37*
%TD.AperFunction*%
%TO.P,C2,1*%
%TO.N,Net-(C2-Pad1)*%
%TA.AperFunction,SMDPad,CuDef*%
G36*
G01*
X148730000Y-85565000D02*
X148730000Y-84615000D01*
G75*
G02*
X148980000Y-84365000I250000J0D01*
G01*
X149480000Y-84365000D01*
G75*
G02*
X149730000Y-84615000I0J-250000D01*
G01*
X149730000Y-85565000D01*
G75*
G02*
X149480000Y-85815000I-250000J0D01*
G01*
X148980000Y-85815000D01*
G75*
G02*
X148730000Y-85565000I0J250000D01*
G01*
G37*
%TD.AperFunction*%
%TD*%
%TO.P,C1,2*%
%TO.N,Net-(C1-Pad2)*%
%TA.AperFunction,SMDPad,CuDef*%
G36*
G01*
X146505000Y-100840002D02*
X146505000Y-94739998D01*
G75*
G02*
X146754998Y-94490000I249998J0D01*
G01*
X147880002Y-94490000D01*
G75*
G02*
X148130000Y-94739998I0J-249998D01*
G01*
X148130000Y-100840002D01*
G75*
G02*
X147880002Y-101090000I-249998J0D01*
G01*
X146754998Y-101090000D01*
G75*
G02*
X146505000Y-100840002I0J249998D01*
G01*
G37*
%TD.AperFunction*%
%TO.P,C1,1*%
%TO.N,Net-(C1-Pad1)*%
%TA.AperFunction,SMDPad,CuDef*%
G36*
G01*
X141430000Y-100840002D02*
X141430000Y-94739998D01*
G75*
G02*
X141679998Y-94490000I249998J0D01*
G01*
X142805002Y-94490000D01*
G75*
G02*
X143055000Y-94739998I0J-249998D01*
G01*
X143055000Y-100840002D01*
G75*
G02*
X142805002Y-101090000I-249998J0D01*
G01*
X141679998Y-101090000D01*
G75*
G02*
X141430000Y-100840002I0J249998D01*
G01*
G37*
%TD.AperFunction*%
%TD*%
D26*
%TO.N,Net-(C1-Pad2)*%
X147317500Y-93809500D02*
X151081000Y-90046000D01*
X147317500Y-97790000D02*
X147317500Y-93809500D01*
X155050000Y-97790000D02*
X160420000Y-92420000D01*
X147317500Y-97790000D02*
X155050000Y-97790000D01*
X148095000Y-97790000D02*
X147317500Y-97790000D01*
X151905000Y-93980000D02*
X148095000Y-97790000D01*
%TO.N,Net-(C1-Pad1)*%
X145207500Y-94825000D02*
X142242500Y-97790000D01*
X145207500Y-89260000D02*
X145207500Y-94825000D01*
X145207500Y-80348600D02*
X131203700Y-66344800D01*
X145207500Y-89260000D02*
X145207500Y-80348600D01*
X146407510Y-90460010D02*
X149569990Y-90460010D01*
X145207500Y-89260000D02*
X146407510Y-90460010D01*
X163674999Y-87785001D02*
X165100000Y-86360000D01*
X150471997Y-87785001D02*
X163674999Y-87785001D01*
X149569990Y-88687008D02*
X150471997Y-87785001D01*
X149569990Y-90460010D02*
X149569990Y-88687008D01*
%TO.N,Net-(C2-Pad2)*%
X151130000Y-84070000D02*
X149610000Y-82550000D01*
X151130000Y-85090000D02*
X151130000Y-84070000D01*
X157480000Y-85090000D02*
X151130000Y-85090000D01*
%TO.N,Net-(C2-Pad1)*%
X148132500Y-86187500D02*
X149230000Y-85090000D01*
X148132500Y-89260000D02*
X148132500Y-86187500D01*
X149230000Y-83190000D02*
X148590000Y-82550000D01*
X149230000Y-85090000D02*
X149230000Y-83190000D01*
X150500000Y-86360000D02*
X149230000Y-85090000D01*
X161290000Y-86360000D02*
X150500000Y-86360000D01*
%TO.N,Net-(C3-Pad1)*%
X151405010Y-92929990D02*
X150355000Y-93980000D01*
X157017012Y-92929990D02*
X151405010Y-92929990D01*
X165242992Y-90496010D02*
X159450992Y-90496010D01*
X170085001Y-85654001D02*
X165242992Y-90496010D01*
X170085001Y-84525999D02*
X170085001Y-85654001D01*
X169474001Y-83914999D02*
X170085001Y-84525999D01*
X163924999Y-83914999D02*
X169474001Y-83914999D01*
X159450992Y-90496010D02*
X157017012Y-92929990D01*
X157480000Y-77470000D02*
X163924999Y-83914999D01*
%TO.N,Net-(C4-Pad2)*%
X126679998Y-92710000D02*
X127170000Y-92710000D01*
X126314999Y-100303189D02*
X126314999Y-93074999D01*
X132322490Y-100660010D02*
X126671820Y-100660010D01*
X126314999Y-93074999D02*
X126679998Y-92710000D01*
X126671820Y-100660010D02*
X126314999Y-100303189D01*
X133922500Y-99060000D02*
X132322490Y-100660010D01*
X122270000Y-88590000D02*
X121960000Y-88590000D01*
X126390000Y-92710000D02*
X122270000Y-88590000D01*
X127170000Y-92710000D02*
X126390000Y-92710000D01*
X149569051Y-61685379D02*
X149569051Y-70979149D01*
X130391249Y-60971549D02*
X148855221Y-60971549D01*
X116884999Y-74477799D02*
X130391249Y-60971549D01*
X116884999Y-83514999D02*
X116884999Y-74477799D01*
X149569051Y-70979149D02*
X148196300Y-72351900D01*
X116949999Y-93915001D02*
X116840000Y-93805002D01*
X122470001Y-93915001D02*
X116949999Y-93915001D01*
X116840000Y-83559998D02*
X116884999Y-83514999D01*
X116840000Y-93805002D02*
X116840000Y-83559998D01*
X122535001Y-93850001D02*
X122470001Y-93915001D01*
X122535001Y-89165001D02*
X122535001Y-93850001D01*
X148855221Y-60971549D02*
X149569051Y-61685379D01*
X121960000Y-88590000D02*
X122535001Y-89165001D01*
X128120000Y-93660000D02*
X129370000Y-93660000D01*
X127170000Y-92710000D02*
X128120000Y-93660000D01*
X129370000Y-93660000D02*
X127170000Y-93660000D01*
X127170000Y-93660000D02*
X127170000Y-92710000D01*
X132652500Y-97790000D02*
X133922500Y-99060000D01*
X132240000Y-97790000D02*
X132652500Y-97790000D01*
X138590000Y-99060000D02*
X139860000Y-97790000D01*
X133922500Y-99060000D02*
X138590000Y-99060000D01*
X119784989Y-86414989D02*
X119784989Y-80875011D01*
X121960000Y-88590000D02*
X119784989Y-86414989D01*
X130810000Y-82630000D02*
X130810000Y-83820000D01*
X128994999Y-80814999D02*
X130810000Y-82630000D01*
X119845001Y-80814999D02*
X128994999Y-80814999D01*
X119784989Y-80875011D02*
X119845001Y-80814999D01*
X129835000Y-84795000D02*
X130810000Y-83820000D01*
X128660000Y-84795000D02*
X129835000Y-84795000D01*
%TO.N,Net-(C4-Pad1)*%
X137000000Y-91927500D02*
X135242500Y-90170000D01*
X137000000Y-97790000D02*
X137000000Y-91927500D01*
X135242500Y-87077500D02*
X132960000Y-84795000D01*
X135242500Y-90170000D02*
X135242500Y-87077500D01*
X133685000Y-82845000D02*
X132960000Y-82845000D01*
X134010010Y-83170010D02*
X133685000Y-82845000D01*
X134010010Y-84469990D02*
X134010010Y-83170010D01*
X133685000Y-84795000D02*
X134010010Y-84469990D01*
X132960000Y-84795000D02*
X133685000Y-84795000D01*
%TO.N,Net-(D1-Pad2)*%
X168910000Y-80010000D02*
X165100000Y-76200000D01*
X168910000Y-82550000D02*
X168910000Y-80010000D01*
%TO.N,Net-(D4-Pad2)*%
X129830949Y-65685879D02*
X131304477Y-64212351D01*
X146328249Y-64212351D02*
X148196300Y-62344300D01*
X130544779Y-67717551D02*
X129830949Y-67003721D01*
X129830949Y-67003721D02*
X129830949Y-65685879D01*
X131862621Y-67717551D02*
X130544779Y-67717551D01*
X141617500Y-77472430D02*
X131862621Y-67717551D01*
X131304477Y-64212351D02*
X146328249Y-64212351D01*
X141617500Y-90170000D02*
X141617500Y-77472430D01*
%TO.N,Net-(P1-Pad2)*%
X168910000Y-85335002D02*
X168910000Y-85090000D01*
X164199002Y-90046000D02*
X168910000Y-85335002D01*
X157031000Y-90046000D02*
X164199002Y-90046000D01*
%TO.N,Net-(J1-PadS1)*%
X119710000Y-92340000D02*
X119010000Y-92340000D01*
X119010000Y-92340000D02*
X118110000Y-91440000D01*
X119710000Y-87746998D02*
X118110000Y-86146998D01*
X119710000Y-92340000D02*
X119710000Y-87746998D01*
X118110000Y-86146998D02*
X118110000Y-83820000D01*
X119085001Y-82121999D02*
X118243002Y-81280000D01*
X119085001Y-83058001D02*
X119085001Y-82121999D01*
X118323002Y-83820000D02*
X119085001Y-83058001D01*
X118110000Y-83820000D02*
X118323002Y-83820000D01*
X118243002Y-79306998D02*
X119710000Y-77840000D01*
X118243002Y-81280000D02*
X118243002Y-79306998D01*
%TO.N,Net-(J1-Pad03)*%
X129370000Y-89064998D02*
X129370000Y-91760000D01*
X123620001Y-83314999D02*
X129370000Y-89064998D01*
X120299999Y-83314999D02*
X123620001Y-83314999D01*
X120310000Y-86090000D02*
X120234999Y-86014999D01*
X120234999Y-83379999D02*
X120299999Y-83314999D01*
X120234999Y-86014999D02*
X120234999Y-83379999D01*
X121960000Y-86090000D02*
X120310000Y-86090000D01*
%TO.N,Net-(J1-Pad02)*%
X121960000Y-84090000D02*
X121650000Y-84090000D01*
X123610000Y-84090000D02*
X127000000Y-87480000D01*
X121960000Y-84090000D02*
X123610000Y-84090000D01*
X127000000Y-91590000D02*
X127170000Y-91760000D01*
X127000000Y-87480000D02*
X127000000Y-91590000D01*
%TO.N,Net-(C5-Pad1)*%
X129860002Y-92710000D02*
X129370000Y-92710000D01*
X130225001Y-93074999D02*
X129860002Y-92710000D01*
X130225001Y-96944999D02*
X130225001Y-93074999D01*
X129380000Y-97790000D02*
X130225001Y-96944999D01*
X127983942Y-83495000D02*
X128660000Y-83495000D01*
X127609990Y-83868952D02*
X127983942Y-83495000D01*
X127609990Y-85071048D02*
X127609990Y-83868952D01*
X130225001Y-87686059D02*
X127609990Y-85071048D01*
X130225001Y-92634999D02*
X130225001Y-87686059D01*
X130150000Y-92710000D02*
X130225001Y-92634999D01*
X129370000Y-92710000D02*
X130150000Y-92710000D01*
X128660000Y-83495000D02*
X128660000Y-82845000D01*
X123215000Y-82845000D02*
X122278205Y-81908205D01*
X128660000Y-82845000D02*
X123215000Y-82845000D01*
%TD*%
M02*
