%TF.GenerationSoftware,KiCad,Pcbnew,5.1.9*%
%TF.CreationDate,2021-02-27T11:03:33+05:30*%
%TF.ProjectId,charger,63686172-6765-4722-9e6b-696361645f70,rev?*%
%TF.SameCoordinates,Original*%
%TF.FileFunction,Paste,Top*%
%TF.FilePolarity,Positive*%
%FSLAX46Y46*%
G04 Gerber Fmt 4.6, Leading zero omitted, Abs format (unit mm)*
G04 Created by KiCad (PCBNEW 5.1.9) date 2021-02-27 11:03:33*
%MOMM*%
%LPD*%
G01*
G04 APERTURE LIST*
%ADD10R,1.250000X1.820000*%
%ADD11R,5.000000X2.500000*%
%ADD12R,2.800000X0.900000*%
%ADD13R,1.260000X3.310000*%
%ADD14R,1.060000X0.650000*%
G04 APERTURE END LIST*
D10*
%TO.C,C5*%
X132240000Y-97790000D03*
X129380000Y-97790000D03*
%TD*%
%TO.C,U2*%
G36*
G01*
X130890000Y-84500000D02*
X130890000Y-84080000D01*
G75*
G02*
X131060000Y-83910000I170000J0D01*
G01*
X131400000Y-83910000D01*
G75*
G02*
X131570000Y-84080000I0J-170000D01*
G01*
X131570000Y-84500000D01*
G75*
G02*
X131400000Y-84670000I-170000J0D01*
G01*
X131060000Y-84670000D01*
G75*
G02*
X130890000Y-84500000I0J170000D01*
G01*
G37*
G36*
G01*
X130890000Y-83560000D02*
X130890000Y-83140000D01*
G75*
G02*
X131060000Y-82970000I170000J0D01*
G01*
X131400000Y-82970000D01*
G75*
G02*
X131570000Y-83140000I0J-170000D01*
G01*
X131570000Y-83560000D01*
G75*
G02*
X131400000Y-83730000I-170000J0D01*
G01*
X131060000Y-83730000D01*
G75*
G02*
X130890000Y-83560000I0J170000D01*
G01*
G37*
G36*
G01*
X130050000Y-84500000D02*
X130050000Y-84080000D01*
G75*
G02*
X130220000Y-83910000I170000J0D01*
G01*
X130560000Y-83910000D01*
G75*
G02*
X130730000Y-84080000I0J-170000D01*
G01*
X130730000Y-84500000D01*
G75*
G02*
X130560000Y-84670000I-170000J0D01*
G01*
X130220000Y-84670000D01*
G75*
G02*
X130050000Y-84500000I0J170000D01*
G01*
G37*
G36*
G01*
X130050000Y-83560000D02*
X130050000Y-83140000D01*
G75*
G02*
X130220000Y-82970000I170000J0D01*
G01*
X130560000Y-82970000D01*
G75*
G02*
X130730000Y-83140000I0J-170000D01*
G01*
X130730000Y-83560000D01*
G75*
G02*
X130560000Y-83730000I-170000J0D01*
G01*
X130220000Y-83730000D01*
G75*
G02*
X130050000Y-83560000I0J170000D01*
G01*
G37*
G36*
G01*
X132235000Y-82945000D02*
X132235000Y-82745000D01*
G75*
G02*
X132335000Y-82645000I100000J0D01*
G01*
X133585000Y-82645000D01*
G75*
G02*
X133685000Y-82745000I0J-100000D01*
G01*
X133685000Y-82945000D01*
G75*
G02*
X133585000Y-83045000I-100000J0D01*
G01*
X132335000Y-83045000D01*
G75*
G02*
X132235000Y-82945000I0J100000D01*
G01*
G37*
G36*
G01*
X132235000Y-83595000D02*
X132235000Y-83395000D01*
G75*
G02*
X132335000Y-83295000I100000J0D01*
G01*
X133585000Y-83295000D01*
G75*
G02*
X133685000Y-83395000I0J-100000D01*
G01*
X133685000Y-83595000D01*
G75*
G02*
X133585000Y-83695000I-100000J0D01*
G01*
X132335000Y-83695000D01*
G75*
G02*
X132235000Y-83595000I0J100000D01*
G01*
G37*
G36*
G01*
X132235000Y-84245000D02*
X132235000Y-84045000D01*
G75*
G02*
X132335000Y-83945000I100000J0D01*
G01*
X133585000Y-83945000D01*
G75*
G02*
X133685000Y-84045000I0J-100000D01*
G01*
X133685000Y-84245000D01*
G75*
G02*
X133585000Y-84345000I-100000J0D01*
G01*
X132335000Y-84345000D01*
G75*
G02*
X132235000Y-84245000I0J100000D01*
G01*
G37*
G36*
G01*
X132235000Y-84895000D02*
X132235000Y-84695000D01*
G75*
G02*
X132335000Y-84595000I100000J0D01*
G01*
X133585000Y-84595000D01*
G75*
G02*
X133685000Y-84695000I0J-100000D01*
G01*
X133685000Y-84895000D01*
G75*
G02*
X133585000Y-84995000I-100000J0D01*
G01*
X132335000Y-84995000D01*
G75*
G02*
X132235000Y-84895000I0J100000D01*
G01*
G37*
G36*
G01*
X127935000Y-84895000D02*
X127935000Y-84695000D01*
G75*
G02*
X128035000Y-84595000I100000J0D01*
G01*
X129285000Y-84595000D01*
G75*
G02*
X129385000Y-84695000I0J-100000D01*
G01*
X129385000Y-84895000D01*
G75*
G02*
X129285000Y-84995000I-100000J0D01*
G01*
X128035000Y-84995000D01*
G75*
G02*
X127935000Y-84895000I0J100000D01*
G01*
G37*
G36*
G01*
X127935000Y-84245000D02*
X127935000Y-84045000D01*
G75*
G02*
X128035000Y-83945000I100000J0D01*
G01*
X129285000Y-83945000D01*
G75*
G02*
X129385000Y-84045000I0J-100000D01*
G01*
X129385000Y-84245000D01*
G75*
G02*
X129285000Y-84345000I-100000J0D01*
G01*
X128035000Y-84345000D01*
G75*
G02*
X127935000Y-84245000I0J100000D01*
G01*
G37*
G36*
G01*
X127935000Y-83595000D02*
X127935000Y-83395000D01*
G75*
G02*
X128035000Y-83295000I100000J0D01*
G01*
X129285000Y-83295000D01*
G75*
G02*
X129385000Y-83395000I0J-100000D01*
G01*
X129385000Y-83595000D01*
G75*
G02*
X129285000Y-83695000I-100000J0D01*
G01*
X128035000Y-83695000D01*
G75*
G02*
X127935000Y-83595000I0J100000D01*
G01*
G37*
G36*
G01*
X127935000Y-82945000D02*
X127935000Y-82745000D01*
G75*
G02*
X128035000Y-82645000I100000J0D01*
G01*
X129285000Y-82645000D01*
G75*
G02*
X129385000Y-82745000I0J-100000D01*
G01*
X129385000Y-82945000D01*
G75*
G02*
X129285000Y-83045000I-100000J0D01*
G01*
X128035000Y-83045000D01*
G75*
G02*
X127935000Y-82945000I0J100000D01*
G01*
G37*
%TD*%
%TO.C,C4*%
X139860000Y-97790000D03*
X137000000Y-97790000D03*
%TD*%
D11*
%TO.C,J1*%
X119710000Y-92340000D03*
X119710000Y-77840000D03*
D12*
X121960000Y-86090000D03*
X121960000Y-81590000D03*
X121960000Y-84090000D03*
X121960000Y-88590000D03*
%TD*%
D13*
%TO.C,R1*%
X157031000Y-90046000D03*
X151081000Y-90046000D03*
%TD*%
D14*
%TO.C,U1*%
X129370000Y-92710000D03*
X129370000Y-91760000D03*
X129370000Y-93660000D03*
X127170000Y-93660000D03*
X127170000Y-92710000D03*
X127170000Y-91760000D03*
%TD*%
%TO.C,R3*%
G36*
G01*
X148860000Y-82365000D02*
X148860000Y-82735000D01*
G75*
G02*
X148725000Y-82870000I-135000J0D01*
G01*
X148455000Y-82870000D01*
G75*
G02*
X148320000Y-82735000I0J135000D01*
G01*
X148320000Y-82365000D01*
G75*
G02*
X148455000Y-82230000I135000J0D01*
G01*
X148725000Y-82230000D01*
G75*
G02*
X148860000Y-82365000I0J-135000D01*
G01*
G37*
G36*
G01*
X149880000Y-82365000D02*
X149880000Y-82735000D01*
G75*
G02*
X149745000Y-82870000I-135000J0D01*
G01*
X149475000Y-82870000D01*
G75*
G02*
X149340000Y-82735000I0J135000D01*
G01*
X149340000Y-82365000D01*
G75*
G02*
X149475000Y-82230000I135000J0D01*
G01*
X149745000Y-82230000D01*
G75*
G02*
X149880000Y-82365000I0J-135000D01*
G01*
G37*
%TD*%
%TO.C,R2*%
G36*
G01*
X147570000Y-89885002D02*
X147570000Y-88634998D01*
G75*
G02*
X147819998Y-88385000I249998J0D01*
G01*
X148445002Y-88385000D01*
G75*
G02*
X148695000Y-88634998I0J-249998D01*
G01*
X148695000Y-89885002D01*
G75*
G02*
X148445002Y-90135000I-249998J0D01*
G01*
X147819998Y-90135000D01*
G75*
G02*
X147570000Y-89885002I0J249998D01*
G01*
G37*
G36*
G01*
X144645000Y-89885002D02*
X144645000Y-88634998D01*
G75*
G02*
X144894998Y-88385000I249998J0D01*
G01*
X145520002Y-88385000D01*
G75*
G02*
X145770000Y-88634998I0J-249998D01*
G01*
X145770000Y-89885002D01*
G75*
G02*
X145520002Y-90135000I-249998J0D01*
G01*
X144894998Y-90135000D01*
G75*
G02*
X144645000Y-89885002I0J249998D01*
G01*
G37*
%TD*%
%TO.C,D4*%
G36*
G01*
X140380000Y-92495001D02*
X140380000Y-87844999D01*
G75*
G02*
X140629999Y-87595000I249999J0D01*
G01*
X142605001Y-87595000D01*
G75*
G02*
X142855000Y-87844999I0J-249999D01*
G01*
X142855000Y-92495001D01*
G75*
G02*
X142605001Y-92745000I-249999J0D01*
G01*
X140629999Y-92745000D01*
G75*
G02*
X140380000Y-92495001I0J249999D01*
G01*
G37*
G36*
G01*
X134005000Y-92495001D02*
X134005000Y-87844999D01*
G75*
G02*
X134254999Y-87595000I249999J0D01*
G01*
X136230001Y-87595000D01*
G75*
G02*
X136480000Y-87844999I0J-249999D01*
G01*
X136480000Y-92495001D01*
G75*
G02*
X136230001Y-92745000I-249999J0D01*
G01*
X134254999Y-92745000D01*
G75*
G02*
X134005000Y-92495001I0J249999D01*
G01*
G37*
%TD*%
%TO.C,C3*%
G36*
G01*
X151455000Y-94230000D02*
X151455000Y-93730000D01*
G75*
G02*
X151680000Y-93505000I225000J0D01*
G01*
X152130000Y-93505000D01*
G75*
G02*
X152355000Y-93730000I0J-225000D01*
G01*
X152355000Y-94230000D01*
G75*
G02*
X152130000Y-94455000I-225000J0D01*
G01*
X151680000Y-94455000D01*
G75*
G02*
X151455000Y-94230000I0J225000D01*
G01*
G37*
G36*
G01*
X149905000Y-94230000D02*
X149905000Y-93730000D01*
G75*
G02*
X150130000Y-93505000I225000J0D01*
G01*
X150580000Y-93505000D01*
G75*
G02*
X150805000Y-93730000I0J-225000D01*
G01*
X150805000Y-94230000D01*
G75*
G02*
X150580000Y-94455000I-225000J0D01*
G01*
X150130000Y-94455000D01*
G75*
G02*
X149905000Y-94230000I0J225000D01*
G01*
G37*
%TD*%
%TO.C,C2*%
G36*
G01*
X150630000Y-85565000D02*
X150630000Y-84615000D01*
G75*
G02*
X150880000Y-84365000I250000J0D01*
G01*
X151380000Y-84365000D01*
G75*
G02*
X151630000Y-84615000I0J-250000D01*
G01*
X151630000Y-85565000D01*
G75*
G02*
X151380000Y-85815000I-250000J0D01*
G01*
X150880000Y-85815000D01*
G75*
G02*
X150630000Y-85565000I0J250000D01*
G01*
G37*
G36*
G01*
X148730000Y-85565000D02*
X148730000Y-84615000D01*
G75*
G02*
X148980000Y-84365000I250000J0D01*
G01*
X149480000Y-84365000D01*
G75*
G02*
X149730000Y-84615000I0J-250000D01*
G01*
X149730000Y-85565000D01*
G75*
G02*
X149480000Y-85815000I-250000J0D01*
G01*
X148980000Y-85815000D01*
G75*
G02*
X148730000Y-85565000I0J250000D01*
G01*
G37*
%TD*%
%TO.C,C1*%
G36*
G01*
X146505000Y-100840002D02*
X146505000Y-94739998D01*
G75*
G02*
X146754998Y-94490000I249998J0D01*
G01*
X147880002Y-94490000D01*
G75*
G02*
X148130000Y-94739998I0J-249998D01*
G01*
X148130000Y-100840002D01*
G75*
G02*
X147880002Y-101090000I-249998J0D01*
G01*
X146754998Y-101090000D01*
G75*
G02*
X146505000Y-100840002I0J249998D01*
G01*
G37*
G36*
G01*
X141430000Y-100840002D02*
X141430000Y-94739998D01*
G75*
G02*
X141679998Y-94490000I249998J0D01*
G01*
X142805002Y-94490000D01*
G75*
G02*
X143055000Y-94739998I0J-249998D01*
G01*
X143055000Y-100840002D01*
G75*
G02*
X142805002Y-101090000I-249998J0D01*
G01*
X141679998Y-101090000D01*
G75*
G02*
X141430000Y-100840002I0J249998D01*
G01*
G37*
%TD*%
M02*
