%TF.GenerationSoftware,KiCad,Pcbnew,5.1.9*%
%TF.CreationDate,2021-04-08T17:50:56+05:30*%
%TF.ProjectId,protection,70726f74-6563-4746-996f-6e2e6b696361,rev?*%
%TF.SameCoordinates,Original*%
%TF.FileFunction,Soldermask,Bot*%
%TF.FilePolarity,Negative*%
%FSLAX46Y46*%
G04 Gerber Fmt 4.6, Leading zero omitted, Abs format (unit mm)*
G04 Created by KiCad (PCBNEW 5.1.9) date 2021-04-08 17:50:56*
%MOMM*%
%LPD*%
G01*
G04 APERTURE LIST*
%ADD10C,2.100000*%
%ADD11R,2.100000X2.100000*%
%ADD12O,1.700000X1.700000*%
%ADD13R,1.700000X1.700000*%
%ADD14O,1.905000X2.000000*%
%ADD15R,1.905000X2.000000*%
%ADD16O,2.000000X1.905000*%
%ADD17R,2.000000X1.905000*%
%ADD18C,3.000000*%
%ADD19R,1.050000X1.500000*%
%ADD20O,1.050000X1.500000*%
%ADD21R,1.800000X1.800000*%
%ADD22O,1.800000X1.800000*%
%ADD23O,2.200000X2.200000*%
%ADD24R,2.200000X2.200000*%
%ADD25R,2.400000X2.400000*%
%ADD26C,2.400000*%
G04 APERTURE END LIST*
D10*
%TO.C,P1*%
X256540000Y-53300000D03*
D11*
X256540000Y-48300000D03*
%TD*%
D10*
%TO.C,J8*%
X251460000Y-134660000D03*
D11*
X251460000Y-139660000D03*
%TD*%
D10*
%TO.C,J2*%
X158790000Y-50800000D03*
D11*
X163790000Y-50800000D03*
%TD*%
D10*
%TO.C,H8*%
X251460000Y-41910000D03*
%TD*%
%TO.C,H7*%
X201930000Y-86360000D03*
%TD*%
%TO.C,H6*%
X248920000Y-151130000D03*
%TD*%
%TO.C,H5*%
X160020000Y-93980000D03*
%TD*%
%TO.C,H4*%
X115570000Y-133350000D03*
%TD*%
%TO.C,H3*%
X184150000Y-151130000D03*
%TD*%
%TO.C,H2*%
X114300000Y-87630000D03*
%TD*%
%TO.C,H1*%
X119380000Y-48260000D03*
%TD*%
D12*
%TO.C,J1*%
X130810000Y-151130000D03*
X128270000Y-151130000D03*
X130810000Y-148590000D03*
X128270000Y-148590000D03*
X130810000Y-146050000D03*
X128270000Y-146050000D03*
X130810000Y-143510000D03*
X128270000Y-143510000D03*
X130810000Y-140970000D03*
X128270000Y-140970000D03*
X130810000Y-138430000D03*
X128270000Y-138430000D03*
X130810000Y-135890000D03*
X128270000Y-135890000D03*
X130810000Y-133350000D03*
X128270000Y-133350000D03*
X130810000Y-130810000D03*
X128270000Y-130810000D03*
X130810000Y-128270000D03*
X128270000Y-128270000D03*
X130810000Y-125730000D03*
X128270000Y-125730000D03*
X130810000Y-123190000D03*
X128270000Y-123190000D03*
X130810000Y-120650000D03*
X128270000Y-120650000D03*
X130810000Y-118110000D03*
X128270000Y-118110000D03*
X130810000Y-115570000D03*
X128270000Y-115570000D03*
X130810000Y-113030000D03*
X128270000Y-113030000D03*
X130810000Y-110490000D03*
X128270000Y-110490000D03*
X130810000Y-107950000D03*
X128270000Y-107950000D03*
X130810000Y-105410000D03*
X128270000Y-105410000D03*
X130810000Y-102870000D03*
D13*
X128270000Y-102870000D03*
%TD*%
%TO.C,D11*%
G36*
G01*
X191125000Y-112385000D02*
X189875000Y-112385000D01*
G75*
G02*
X189625000Y-112135000I0J250000D01*
G01*
X189625000Y-111385000D01*
G75*
G02*
X189875000Y-111135000I250000J0D01*
G01*
X191125000Y-111135000D01*
G75*
G02*
X191375000Y-111385000I0J-250000D01*
G01*
X191375000Y-112135000D01*
G75*
G02*
X191125000Y-112385000I-250000J0D01*
G01*
G37*
G36*
G01*
X191125000Y-115185000D02*
X189875000Y-115185000D01*
G75*
G02*
X189625000Y-114935000I0J250000D01*
G01*
X189625000Y-114185000D01*
G75*
G02*
X189875000Y-113935000I250000J0D01*
G01*
X191125000Y-113935000D01*
G75*
G02*
X191375000Y-114185000I0J-250000D01*
G01*
X191375000Y-114935000D01*
G75*
G02*
X191125000Y-115185000I-250000J0D01*
G01*
G37*
%TD*%
D14*
%TO.C,U2*%
X181610000Y-72390000D03*
X179070000Y-72390000D03*
D15*
X176530000Y-72390000D03*
%TD*%
D16*
%TO.C,U1*%
X224790000Y-111760000D03*
X224790000Y-109220000D03*
D17*
X224790000Y-106680000D03*
%TD*%
D18*
%TO.C,T1*%
X223520000Y-92710000D03*
X223520000Y-87630000D03*
X223520000Y-82550000D03*
X223520000Y-72390000D03*
X248920000Y-87630000D03*
X248920000Y-82550000D03*
X248920000Y-77470000D03*
X248920000Y-67310000D03*
X248920000Y-72390000D03*
X223520000Y-77470000D03*
X223520000Y-67310000D03*
X248920000Y-92710000D03*
%TD*%
%TO.C,R10*%
G36*
G01*
X191125002Y-105972500D02*
X189874998Y-105972500D01*
G75*
G02*
X189625000Y-105722502I0J249998D01*
G01*
X189625000Y-105097498D01*
G75*
G02*
X189874998Y-104847500I249998J0D01*
G01*
X191125002Y-104847500D01*
G75*
G02*
X191375000Y-105097498I0J-249998D01*
G01*
X191375000Y-105722502D01*
G75*
G02*
X191125002Y-105972500I-249998J0D01*
G01*
G37*
G36*
G01*
X191125002Y-108897500D02*
X189874998Y-108897500D01*
G75*
G02*
X189625000Y-108647502I0J249998D01*
G01*
X189625000Y-108022498D01*
G75*
G02*
X189874998Y-107772500I249998J0D01*
G01*
X191125002Y-107772500D01*
G75*
G02*
X191375000Y-108022498I0J-249998D01*
G01*
X191375000Y-108647502D01*
G75*
G02*
X191125002Y-108897500I-249998J0D01*
G01*
G37*
%TD*%
%TO.C,R7*%
G36*
G01*
X216314998Y-106884440D02*
X217565002Y-106884440D01*
G75*
G02*
X217815000Y-107134438I0J-249998D01*
G01*
X217815000Y-107759442D01*
G75*
G02*
X217565002Y-108009440I-249998J0D01*
G01*
X216314998Y-108009440D01*
G75*
G02*
X216065000Y-107759442I0J249998D01*
G01*
X216065000Y-107134438D01*
G75*
G02*
X216314998Y-106884440I249998J0D01*
G01*
G37*
G36*
G01*
X216314998Y-103959440D02*
X217565002Y-103959440D01*
G75*
G02*
X217815000Y-104209438I0J-249998D01*
G01*
X217815000Y-104834442D01*
G75*
G02*
X217565002Y-105084440I-249998J0D01*
G01*
X216314998Y-105084440D01*
G75*
G02*
X216065000Y-104834442I0J249998D01*
G01*
X216065000Y-104209438D01*
G75*
G02*
X216314998Y-103959440I249998J0D01*
G01*
G37*
%TD*%
D19*
%TO.C,Q4*%
X142240000Y-91440000D03*
D20*
X144780000Y-91440000D03*
X143510000Y-91440000D03*
%TD*%
D19*
%TO.C,Q3*%
X238760000Y-120650000D03*
D20*
X241300000Y-120650000D03*
X240030000Y-120650000D03*
%TD*%
D21*
%TO.C,Q2*%
X187960000Y-80010000D03*
D22*
X190500000Y-80010000D03*
X193040000Y-80010000D03*
%TD*%
%TO.C,Q1*%
X238760000Y-109220000D03*
X236220000Y-109220000D03*
D21*
X233680000Y-109220000D03*
%TD*%
D12*
%TO.C,J7*%
X118110000Y-151130000D03*
X118110000Y-148590000D03*
X118110000Y-146050000D03*
D13*
X118110000Y-143510000D03*
%TD*%
D10*
%TO.C,J4*%
X251460000Y-111720000D03*
D11*
X251460000Y-106720000D03*
%TD*%
D18*
%TO.C,F3*%
X130810000Y-72390000D03*
X140970000Y-72390000D03*
%TD*%
%TO.C,F2*%
X220980000Y-135890000D03*
X210820000Y-135890000D03*
%TD*%
%TO.C,F1*%
X212090000Y-48260000D03*
X222250000Y-48260000D03*
%TD*%
%TO.C,D9*%
G36*
G01*
X211445000Y-105775000D02*
X210195000Y-105775000D01*
G75*
G02*
X209945000Y-105525000I0J250000D01*
G01*
X209945000Y-104775000D01*
G75*
G02*
X210195000Y-104525000I250000J0D01*
G01*
X211445000Y-104525000D01*
G75*
G02*
X211695000Y-104775000I0J-250000D01*
G01*
X211695000Y-105525000D01*
G75*
G02*
X211445000Y-105775000I-250000J0D01*
G01*
G37*
G36*
G01*
X211445000Y-108575000D02*
X210195000Y-108575000D01*
G75*
G02*
X209945000Y-108325000I0J250000D01*
G01*
X209945000Y-107575000D01*
G75*
G02*
X210195000Y-107325000I250000J0D01*
G01*
X211445000Y-107325000D01*
G75*
G02*
X211695000Y-107575000I0J-250000D01*
G01*
X211695000Y-108325000D01*
G75*
G02*
X211445000Y-108575000I-250000J0D01*
G01*
G37*
%TD*%
D23*
%TO.C,D6*%
X193040000Y-62230000D03*
D24*
X203200000Y-62230000D03*
%TD*%
D23*
%TO.C,D5*%
X203200000Y-57150000D03*
D24*
X193040000Y-57150000D03*
%TD*%
D23*
%TO.C,D2*%
X203200000Y-52070000D03*
D24*
X193040000Y-52070000D03*
%TD*%
D23*
%TO.C,D1*%
X203200000Y-46990000D03*
D24*
X193040000Y-46990000D03*
%TD*%
D25*
%TO.C,C1*%
X179070000Y-50800000D03*
D26*
X179070000Y-58300000D03*
%TD*%
D12*
%TO.C,J6*%
X156210000Y-147320000D03*
X156210000Y-144780000D03*
X156210000Y-142240000D03*
D13*
X156210000Y-139700000D03*
%TD*%
D12*
%TO.C,J5*%
X144780000Y-151130000D03*
X144780000Y-148590000D03*
X144780000Y-146050000D03*
X144780000Y-143510000D03*
X144780000Y-140970000D03*
X144780000Y-138430000D03*
X144780000Y-135890000D03*
X144780000Y-133350000D03*
X144780000Y-130810000D03*
X144780000Y-128270000D03*
X144780000Y-125730000D03*
X144780000Y-123190000D03*
X144780000Y-120650000D03*
X144780000Y-118110000D03*
X144780000Y-115570000D03*
D13*
X144780000Y-113030000D03*
%TD*%
D12*
%TO.C,J3*%
X116840000Y-109220000D03*
X116840000Y-111760000D03*
X116840000Y-114300000D03*
X116840000Y-116840000D03*
X116840000Y-119380000D03*
D13*
X116840000Y-121920000D03*
%TD*%
M02*
