%TF.GenerationSoftware,KiCad,Pcbnew,5.1.9*%
%TF.CreationDate,2021-04-08T17:50:56+05:30*%
%TF.ProjectId,protection,70726f74-6563-4746-996f-6e2e6b696361,rev?*%
%TF.SameCoordinates,Original*%
%TF.FileFunction,Legend,Bot*%
%TF.FilePolarity,Positive*%
%FSLAX46Y46*%
G04 Gerber Fmt 4.6, Leading zero omitted, Abs format (unit mm)*
G04 Created by KiCad (PCBNEW 5.1.9) date 2021-04-08 17:50:56*
%MOMM*%
%LPD*%
G01*
G04 APERTURE LIST*
%ADD10C,0.120000*%
%ADD11C,0.150000*%
G04 APERTURE END LIST*
D10*
%TO.C,D11*%
X189365000Y-115445000D02*
X189365000Y-111560000D01*
X191635000Y-115445000D02*
X189365000Y-115445000D01*
X191635000Y-111560000D02*
X191635000Y-115445000D01*
%TO.C,R10*%
X189590000Y-107599564D02*
X189590000Y-106145436D01*
X191410000Y-107599564D02*
X191410000Y-106145436D01*
%TO.C,R7*%
X217850000Y-105257376D02*
X217850000Y-106711504D01*
X216030000Y-105257376D02*
X216030000Y-106711504D01*
%TO.C,D9*%
X209685000Y-108835000D02*
X209685000Y-104950000D01*
X211955000Y-108835000D02*
X209685000Y-108835000D01*
X211955000Y-104950000D02*
X211955000Y-108835000D01*
%TO.C,D11*%
D11*
X192772380Y-111945714D02*
X191772380Y-111945714D01*
X191772380Y-112183809D01*
X191820000Y-112326666D01*
X191915238Y-112421904D01*
X192010476Y-112469523D01*
X192200952Y-112517142D01*
X192343809Y-112517142D01*
X192534285Y-112469523D01*
X192629523Y-112421904D01*
X192724761Y-112326666D01*
X192772380Y-112183809D01*
X192772380Y-111945714D01*
X192772380Y-113469523D02*
X192772380Y-112898095D01*
X192772380Y-113183809D02*
X191772380Y-113183809D01*
X191915238Y-113088571D01*
X192010476Y-112993333D01*
X192058095Y-112898095D01*
X192772380Y-114421904D02*
X192772380Y-113850476D01*
X192772380Y-114136190D02*
X191772380Y-114136190D01*
X191915238Y-114040952D01*
X192010476Y-113945714D01*
X192058095Y-113850476D01*
%TO.C,R10*%
X192772380Y-106229642D02*
X192296190Y-105896309D01*
X192772380Y-105658214D02*
X191772380Y-105658214D01*
X191772380Y-106039166D01*
X191820000Y-106134404D01*
X191867619Y-106182023D01*
X191962857Y-106229642D01*
X192105714Y-106229642D01*
X192200952Y-106182023D01*
X192248571Y-106134404D01*
X192296190Y-106039166D01*
X192296190Y-105658214D01*
X192772380Y-107182023D02*
X192772380Y-106610595D01*
X192772380Y-106896309D02*
X191772380Y-106896309D01*
X191915238Y-106801071D01*
X192010476Y-106705833D01*
X192058095Y-106610595D01*
X191772380Y-107801071D02*
X191772380Y-107896309D01*
X191820000Y-107991547D01*
X191867619Y-108039166D01*
X191962857Y-108086785D01*
X192153333Y-108134404D01*
X192391428Y-108134404D01*
X192581904Y-108086785D01*
X192677142Y-108039166D01*
X192724761Y-107991547D01*
X192772380Y-107896309D01*
X192772380Y-107801071D01*
X192724761Y-107705833D01*
X192677142Y-107658214D01*
X192581904Y-107610595D01*
X192391428Y-107562976D01*
X192153333Y-107562976D01*
X191962857Y-107610595D01*
X191867619Y-107658214D01*
X191820000Y-107705833D01*
X191772380Y-107801071D01*
%TO.C,R7*%
X215572380Y-105817773D02*
X215096190Y-105484440D01*
X215572380Y-105246344D02*
X214572380Y-105246344D01*
X214572380Y-105627297D01*
X214620000Y-105722535D01*
X214667619Y-105770154D01*
X214762857Y-105817773D01*
X214905714Y-105817773D01*
X215000952Y-105770154D01*
X215048571Y-105722535D01*
X215096190Y-105627297D01*
X215096190Y-105246344D01*
X214572380Y-106151106D02*
X214572380Y-106817773D01*
X215572380Y-106389201D01*
%TO.C,D9*%
X213092380Y-105811904D02*
X212092380Y-105811904D01*
X212092380Y-106050000D01*
X212140000Y-106192857D01*
X212235238Y-106288095D01*
X212330476Y-106335714D01*
X212520952Y-106383333D01*
X212663809Y-106383333D01*
X212854285Y-106335714D01*
X212949523Y-106288095D01*
X213044761Y-106192857D01*
X213092380Y-106050000D01*
X213092380Y-105811904D01*
X213092380Y-106859523D02*
X213092380Y-107050000D01*
X213044761Y-107145238D01*
X212997142Y-107192857D01*
X212854285Y-107288095D01*
X212663809Y-107335714D01*
X212282857Y-107335714D01*
X212187619Y-107288095D01*
X212140000Y-107240476D01*
X212092380Y-107145238D01*
X212092380Y-106954761D01*
X212140000Y-106859523D01*
X212187619Y-106811904D01*
X212282857Y-106764285D01*
X212520952Y-106764285D01*
X212616190Y-106811904D01*
X212663809Y-106859523D01*
X212711428Y-106954761D01*
X212711428Y-107145238D01*
X212663809Y-107240476D01*
X212616190Y-107288095D01*
X212520952Y-107335714D01*
%TD*%
M02*
