%TF.GenerationSoftware,KiCad,Pcbnew,5.1.9*%
%TF.CreationDate,2021-04-08T17:50:56+05:30*%
%TF.ProjectId,protection,70726f74-6563-4746-996f-6e2e6b696361,rev?*%
%TF.SameCoordinates,Original*%
%TF.FileFunction,Paste,Top*%
%TF.FilePolarity,Positive*%
%FSLAX46Y46*%
G04 Gerber Fmt 4.6, Leading zero omitted, Abs format (unit mm)*
G04 Created by KiCad (PCBNEW 5.1.9) date 2021-04-08 17:50:56*
%MOMM*%
%LPD*%
G01*
G04 APERTURE LIST*
G04 APERTURE END LIST*
%TO.C,R1*%
G36*
G01*
X206384998Y-109042500D02*
X207635002Y-109042500D01*
G75*
G02*
X207885000Y-109292498I0J-249998D01*
G01*
X207885000Y-109917502D01*
G75*
G02*
X207635002Y-110167500I-249998J0D01*
G01*
X206384998Y-110167500D01*
G75*
G02*
X206135000Y-109917502I0J249998D01*
G01*
X206135000Y-109292498D01*
G75*
G02*
X206384998Y-109042500I249998J0D01*
G01*
G37*
G36*
G01*
X206384998Y-106117500D02*
X207635002Y-106117500D01*
G75*
G02*
X207885000Y-106367498I0J-249998D01*
G01*
X207885000Y-106992502D01*
G75*
G02*
X207635002Y-107242500I-249998J0D01*
G01*
X206384998Y-107242500D01*
G75*
G02*
X206135000Y-106992502I0J249998D01*
G01*
X206135000Y-106367498D01*
G75*
G02*
X206384998Y-106117500I249998J0D01*
G01*
G37*
%TD*%
%TO.C,R11*%
G36*
G01*
X152030000Y-83175002D02*
X152030000Y-81924998D01*
G75*
G02*
X152279998Y-81675000I249998J0D01*
G01*
X152905002Y-81675000D01*
G75*
G02*
X153155000Y-81924998I0J-249998D01*
G01*
X153155000Y-83175002D01*
G75*
G02*
X152905002Y-83425000I-249998J0D01*
G01*
X152279998Y-83425000D01*
G75*
G02*
X152030000Y-83175002I0J249998D01*
G01*
G37*
G36*
G01*
X149105000Y-83175002D02*
X149105000Y-81924998D01*
G75*
G02*
X149354998Y-81675000I249998J0D01*
G01*
X149980002Y-81675000D01*
G75*
G02*
X150230000Y-81924998I0J-249998D01*
G01*
X150230000Y-83175002D01*
G75*
G02*
X149980002Y-83425000I-249998J0D01*
G01*
X149354998Y-83425000D01*
G75*
G02*
X149105000Y-83175002I0J249998D01*
G01*
G37*
%TD*%
%TO.C,R9*%
G36*
G01*
X187060000Y-65414998D02*
X187060000Y-66665002D01*
G75*
G02*
X186810002Y-66915000I-249998J0D01*
G01*
X186184998Y-66915000D01*
G75*
G02*
X185935000Y-66665002I0J249998D01*
G01*
X185935000Y-65414998D01*
G75*
G02*
X186184998Y-65165000I249998J0D01*
G01*
X186810002Y-65165000D01*
G75*
G02*
X187060000Y-65414998I0J-249998D01*
G01*
G37*
G36*
G01*
X189985000Y-65414998D02*
X189985000Y-66665002D01*
G75*
G02*
X189735002Y-66915000I-249998J0D01*
G01*
X189109998Y-66915000D01*
G75*
G02*
X188860000Y-66665002I0J249998D01*
G01*
X188860000Y-65414998D01*
G75*
G02*
X189109998Y-65165000I249998J0D01*
G01*
X189735002Y-65165000D01*
G75*
G02*
X189985000Y-65414998I0J-249998D01*
G01*
G37*
%TD*%
%TO.C,R8*%
G36*
G01*
X175775000Y-84445002D02*
X175775000Y-83194998D01*
G75*
G02*
X176024998Y-82945000I249998J0D01*
G01*
X176650002Y-82945000D01*
G75*
G02*
X176900000Y-83194998I0J-249998D01*
G01*
X176900000Y-84445002D01*
G75*
G02*
X176650002Y-84695000I-249998J0D01*
G01*
X176024998Y-84695000D01*
G75*
G02*
X175775000Y-84445002I0J249998D01*
G01*
G37*
G36*
G01*
X178700000Y-84445002D02*
X178700000Y-83194998D01*
G75*
G02*
X178949998Y-82945000I249998J0D01*
G01*
X179575002Y-82945000D01*
G75*
G02*
X179825000Y-83194998I0J-249998D01*
G01*
X179825000Y-84445002D01*
G75*
G02*
X179575002Y-84695000I-249998J0D01*
G01*
X178949998Y-84695000D01*
G75*
G02*
X178700000Y-84445002I0J249998D01*
G01*
G37*
%TD*%
%TO.C,R6*%
G36*
G01*
X172230000Y-81095000D02*
X172230000Y-81465000D01*
G75*
G02*
X172095000Y-81600000I-135000J0D01*
G01*
X171825000Y-81600000D01*
G75*
G02*
X171690000Y-81465000I0J135000D01*
G01*
X171690000Y-81095000D01*
G75*
G02*
X171825000Y-80960000I135000J0D01*
G01*
X172095000Y-80960000D01*
G75*
G02*
X172230000Y-81095000I0J-135000D01*
G01*
G37*
G36*
G01*
X171210000Y-81095000D02*
X171210000Y-81465000D01*
G75*
G02*
X171075000Y-81600000I-135000J0D01*
G01*
X170805000Y-81600000D01*
G75*
G02*
X170670000Y-81465000I0J135000D01*
G01*
X170670000Y-81095000D01*
G75*
G02*
X170805000Y-80960000I135000J0D01*
G01*
X171075000Y-80960000D01*
G75*
G02*
X171210000Y-81095000I0J-135000D01*
G01*
G37*
%TD*%
%TO.C,R5*%
G36*
G01*
X211905000Y-119110000D02*
X212275000Y-119110000D01*
G75*
G02*
X212410000Y-119245000I0J-135000D01*
G01*
X212410000Y-119515000D01*
G75*
G02*
X212275000Y-119650000I-135000J0D01*
G01*
X211905000Y-119650000D01*
G75*
G02*
X211770000Y-119515000I0J135000D01*
G01*
X211770000Y-119245000D01*
G75*
G02*
X211905000Y-119110000I135000J0D01*
G01*
G37*
G36*
G01*
X211905000Y-118090000D02*
X212275000Y-118090000D01*
G75*
G02*
X212410000Y-118225000I0J-135000D01*
G01*
X212410000Y-118495000D01*
G75*
G02*
X212275000Y-118630000I-135000J0D01*
G01*
X211905000Y-118630000D01*
G75*
G02*
X211770000Y-118495000I0J135000D01*
G01*
X211770000Y-118225000D01*
G75*
G02*
X211905000Y-118090000I135000J0D01*
G01*
G37*
%TD*%
%TO.C,R4*%
G36*
G01*
X170935000Y-76844998D02*
X170935000Y-78095002D01*
G75*
G02*
X170685002Y-78345000I-249998J0D01*
G01*
X170059998Y-78345000D01*
G75*
G02*
X169810000Y-78095002I0J249998D01*
G01*
X169810000Y-76844998D01*
G75*
G02*
X170059998Y-76595000I249998J0D01*
G01*
X170685002Y-76595000D01*
G75*
G02*
X170935000Y-76844998I0J-249998D01*
G01*
G37*
G36*
G01*
X168010000Y-76844998D02*
X168010000Y-78095002D01*
G75*
G02*
X167760002Y-78345000I-249998J0D01*
G01*
X167134998Y-78345000D01*
G75*
G02*
X166885000Y-78095002I0J249998D01*
G01*
X166885000Y-76844998D01*
G75*
G02*
X167134998Y-76595000I249998J0D01*
G01*
X167760002Y-76595000D01*
G75*
G02*
X168010000Y-76844998I0J-249998D01*
G01*
G37*
%TD*%
%TO.C,R3*%
G36*
G01*
X217565002Y-110694440D02*
X216314998Y-110694440D01*
G75*
G02*
X216065000Y-110444442I0J249998D01*
G01*
X216065000Y-109819438D01*
G75*
G02*
X216314998Y-109569440I249998J0D01*
G01*
X217565002Y-109569440D01*
G75*
G02*
X217815000Y-109819438I0J-249998D01*
G01*
X217815000Y-110444442D01*
G75*
G02*
X217565002Y-110694440I-249998J0D01*
G01*
G37*
G36*
G01*
X217565002Y-113619440D02*
X216314998Y-113619440D01*
G75*
G02*
X216065000Y-113369442I0J249998D01*
G01*
X216065000Y-112744438D01*
G75*
G02*
X216314998Y-112494440I249998J0D01*
G01*
X217565002Y-112494440D01*
G75*
G02*
X217815000Y-112744438I0J-249998D01*
G01*
X217815000Y-113369442D01*
G75*
G02*
X217565002Y-113619440I-249998J0D01*
G01*
G37*
%TD*%
%TO.C,R2*%
G36*
G01*
X166885000Y-73015002D02*
X166885000Y-71764998D01*
G75*
G02*
X167134998Y-71515000I249998J0D01*
G01*
X167760002Y-71515000D01*
G75*
G02*
X168010000Y-71764998I0J-249998D01*
G01*
X168010000Y-73015002D01*
G75*
G02*
X167760002Y-73265000I-249998J0D01*
G01*
X167134998Y-73265000D01*
G75*
G02*
X166885000Y-73015002I0J249998D01*
G01*
G37*
G36*
G01*
X169810000Y-73015002D02*
X169810000Y-71764998D01*
G75*
G02*
X170059998Y-71515000I249998J0D01*
G01*
X170685002Y-71515000D01*
G75*
G02*
X170935000Y-71764998I0J-249998D01*
G01*
X170935000Y-73015002D01*
G75*
G02*
X170685002Y-73265000I-249998J0D01*
G01*
X170059998Y-73265000D01*
G75*
G02*
X169810000Y-73015002I0J249998D01*
G01*
G37*
%TD*%
%TO.C,D14*%
G36*
G01*
X131260000Y-94436250D02*
X131260000Y-93523750D01*
G75*
G02*
X131503750Y-93280000I243750J0D01*
G01*
X131991250Y-93280000D01*
G75*
G02*
X132235000Y-93523750I0J-243750D01*
G01*
X132235000Y-94436250D01*
G75*
G02*
X131991250Y-94680000I-243750J0D01*
G01*
X131503750Y-94680000D01*
G75*
G02*
X131260000Y-94436250I0J243750D01*
G01*
G37*
G36*
G01*
X129385000Y-94436250D02*
X129385000Y-93523750D01*
G75*
G02*
X129628750Y-93280000I243750J0D01*
G01*
X130116250Y-93280000D01*
G75*
G02*
X130360000Y-93523750I0J-243750D01*
G01*
X130360000Y-94436250D01*
G75*
G02*
X130116250Y-94680000I-243750J0D01*
G01*
X129628750Y-94680000D01*
G75*
G02*
X129385000Y-94436250I0J243750D01*
G01*
G37*
%TD*%
%TO.C,D13*%
G36*
G01*
X142590000Y-82806250D02*
X142590000Y-82293750D01*
G75*
G02*
X142808750Y-82075000I218750J0D01*
G01*
X143246250Y-82075000D01*
G75*
G02*
X143465000Y-82293750I0J-218750D01*
G01*
X143465000Y-82806250D01*
G75*
G02*
X143246250Y-83025000I-218750J0D01*
G01*
X142808750Y-83025000D01*
G75*
G02*
X142590000Y-82806250I0J218750D01*
G01*
G37*
G36*
G01*
X141015000Y-82806250D02*
X141015000Y-82293750D01*
G75*
G02*
X141233750Y-82075000I218750J0D01*
G01*
X141671250Y-82075000D01*
G75*
G02*
X141890000Y-82293750I0J-218750D01*
G01*
X141890000Y-82806250D01*
G75*
G02*
X141671250Y-83025000I-218750J0D01*
G01*
X141233750Y-83025000D01*
G75*
G02*
X141015000Y-82806250I0J218750D01*
G01*
G37*
%TD*%
%TO.C,D12*%
G36*
G01*
X235400000Y-117296250D02*
X235400000Y-116383750D01*
G75*
G02*
X235643750Y-116140000I243750J0D01*
G01*
X236131250Y-116140000D01*
G75*
G02*
X236375000Y-116383750I0J-243750D01*
G01*
X236375000Y-117296250D01*
G75*
G02*
X236131250Y-117540000I-243750J0D01*
G01*
X235643750Y-117540000D01*
G75*
G02*
X235400000Y-117296250I0J243750D01*
G01*
G37*
G36*
G01*
X233525000Y-117296250D02*
X233525000Y-116383750D01*
G75*
G02*
X233768750Y-116140000I243750J0D01*
G01*
X234256250Y-116140000D01*
G75*
G02*
X234500000Y-116383750I0J-243750D01*
G01*
X234500000Y-117296250D01*
G75*
G02*
X234256250Y-117540000I-243750J0D01*
G01*
X233768750Y-117540000D01*
G75*
G02*
X233525000Y-117296250I0J243750D01*
G01*
G37*
%TD*%
%TO.C,D10*%
G36*
G01*
X167685000Y-84076250D02*
X167685000Y-83563750D01*
G75*
G02*
X167903750Y-83345000I218750J0D01*
G01*
X168341250Y-83345000D01*
G75*
G02*
X168560000Y-83563750I0J-218750D01*
G01*
X168560000Y-84076250D01*
G75*
G02*
X168341250Y-84295000I-218750J0D01*
G01*
X167903750Y-84295000D01*
G75*
G02*
X167685000Y-84076250I0J218750D01*
G01*
G37*
G36*
G01*
X169260000Y-84076250D02*
X169260000Y-83563750D01*
G75*
G02*
X169478750Y-83345000I218750J0D01*
G01*
X169916250Y-83345000D01*
G75*
G02*
X170135000Y-83563750I0J-218750D01*
G01*
X170135000Y-84076250D01*
G75*
G02*
X169916250Y-84295000I-218750J0D01*
G01*
X169478750Y-84295000D01*
G75*
G02*
X169260000Y-84076250I0J218750D01*
G01*
G37*
%TD*%
%TO.C,D8*%
G36*
G01*
X167685000Y-87886250D02*
X167685000Y-87373750D01*
G75*
G02*
X167903750Y-87155000I218750J0D01*
G01*
X168341250Y-87155000D01*
G75*
G02*
X168560000Y-87373750I0J-218750D01*
G01*
X168560000Y-87886250D01*
G75*
G02*
X168341250Y-88105000I-218750J0D01*
G01*
X167903750Y-88105000D01*
G75*
G02*
X167685000Y-87886250I0J218750D01*
G01*
G37*
G36*
G01*
X169260000Y-87886250D02*
X169260000Y-87373750D01*
G75*
G02*
X169478750Y-87155000I218750J0D01*
G01*
X169916250Y-87155000D01*
G75*
G02*
X170135000Y-87373750I0J-218750D01*
G01*
X170135000Y-87886250D01*
G75*
G02*
X169916250Y-88105000I-218750J0D01*
G01*
X169478750Y-88105000D01*
G75*
G02*
X169260000Y-87886250I0J218750D01*
G01*
G37*
%TD*%
%TO.C,D7*%
G36*
G01*
X213710000Y-124716250D02*
X213710000Y-124203750D01*
G75*
G02*
X213928750Y-123985000I218750J0D01*
G01*
X214366250Y-123985000D01*
G75*
G02*
X214585000Y-124203750I0J-218750D01*
G01*
X214585000Y-124716250D01*
G75*
G02*
X214366250Y-124935000I-218750J0D01*
G01*
X213928750Y-124935000D01*
G75*
G02*
X213710000Y-124716250I0J218750D01*
G01*
G37*
G36*
G01*
X212135000Y-124716250D02*
X212135000Y-124203750D01*
G75*
G02*
X212353750Y-123985000I218750J0D01*
G01*
X212791250Y-123985000D01*
G75*
G02*
X213010000Y-124203750I0J-218750D01*
G01*
X213010000Y-124716250D01*
G75*
G02*
X212791250Y-124935000I-218750J0D01*
G01*
X212353750Y-124935000D01*
G75*
G02*
X212135000Y-124716250I0J218750D01*
G01*
G37*
%TD*%
%TO.C,D4*%
G36*
G01*
X177845000Y-90426250D02*
X177845000Y-89913750D01*
G75*
G02*
X178063750Y-89695000I218750J0D01*
G01*
X178501250Y-89695000D01*
G75*
G02*
X178720000Y-89913750I0J-218750D01*
G01*
X178720000Y-90426250D01*
G75*
G02*
X178501250Y-90645000I-218750J0D01*
G01*
X178063750Y-90645000D01*
G75*
G02*
X177845000Y-90426250I0J218750D01*
G01*
G37*
G36*
G01*
X179420000Y-90426250D02*
X179420000Y-89913750D01*
G75*
G02*
X179638750Y-89695000I218750J0D01*
G01*
X180076250Y-89695000D01*
G75*
G02*
X180295000Y-89913750I0J-218750D01*
G01*
X180295000Y-90426250D01*
G75*
G02*
X180076250Y-90645000I-218750J0D01*
G01*
X179638750Y-90645000D01*
G75*
G02*
X179420000Y-90426250I0J218750D01*
G01*
G37*
%TD*%
%TO.C,D3*%
G36*
G01*
X247212500Y-125986250D02*
X247212500Y-125473750D01*
G75*
G02*
X247431250Y-125255000I218750J0D01*
G01*
X247868750Y-125255000D01*
G75*
G02*
X248087500Y-125473750I0J-218750D01*
G01*
X248087500Y-125986250D01*
G75*
G02*
X247868750Y-126205000I-218750J0D01*
G01*
X247431250Y-126205000D01*
G75*
G02*
X247212500Y-125986250I0J218750D01*
G01*
G37*
G36*
G01*
X245637500Y-125986250D02*
X245637500Y-125473750D01*
G75*
G02*
X245856250Y-125255000I218750J0D01*
G01*
X246293750Y-125255000D01*
G75*
G02*
X246512500Y-125473750I0J-218750D01*
G01*
X246512500Y-125986250D01*
G75*
G02*
X246293750Y-126205000I-218750J0D01*
G01*
X245856250Y-126205000D01*
G75*
G02*
X245637500Y-125986250I0J218750D01*
G01*
G37*
%TD*%
%TO.C,C5*%
G36*
G01*
X155390000Y-86835000D02*
X155390000Y-85885000D01*
G75*
G02*
X155640000Y-85635000I250000J0D01*
G01*
X156140000Y-85635000D01*
G75*
G02*
X156390000Y-85885000I0J-250000D01*
G01*
X156390000Y-86835000D01*
G75*
G02*
X156140000Y-87085000I-250000J0D01*
G01*
X155640000Y-87085000D01*
G75*
G02*
X155390000Y-86835000I0J250000D01*
G01*
G37*
G36*
G01*
X153490000Y-86835000D02*
X153490000Y-85885000D01*
G75*
G02*
X153740000Y-85635000I250000J0D01*
G01*
X154240000Y-85635000D01*
G75*
G02*
X154490000Y-85885000I0J-250000D01*
G01*
X154490000Y-86835000D01*
G75*
G02*
X154240000Y-87085000I-250000J0D01*
G01*
X153740000Y-87085000D01*
G75*
G02*
X153490000Y-86835000I0J250000D01*
G01*
G37*
%TD*%
%TO.C,C4*%
G36*
G01*
X133720000Y-82719999D02*
X133720000Y-84920001D01*
G75*
G02*
X133470001Y-85170000I-249999J0D01*
G01*
X132819999Y-85170000D01*
G75*
G02*
X132570000Y-84920001I0J249999D01*
G01*
X132570000Y-82719999D01*
G75*
G02*
X132819999Y-82470000I249999J0D01*
G01*
X133470001Y-82470000D01*
G75*
G02*
X133720000Y-82719999I0J-249999D01*
G01*
G37*
G36*
G01*
X136670000Y-82719999D02*
X136670000Y-84920001D01*
G75*
G02*
X136420001Y-85170000I-249999J0D01*
G01*
X135769999Y-85170000D01*
G75*
G02*
X135520000Y-84920001I0J249999D01*
G01*
X135520000Y-82719999D01*
G75*
G02*
X135769999Y-82470000I249999J0D01*
G01*
X136420001Y-82470000D01*
G75*
G02*
X136670000Y-82719999I0J-249999D01*
G01*
G37*
%TD*%
%TO.C,C3*%
G36*
G01*
X249690000Y-118585000D02*
X249690000Y-117635000D01*
G75*
G02*
X249940000Y-117385000I250000J0D01*
G01*
X250440000Y-117385000D01*
G75*
G02*
X250690000Y-117635000I0J-250000D01*
G01*
X250690000Y-118585000D01*
G75*
G02*
X250440000Y-118835000I-250000J0D01*
G01*
X249940000Y-118835000D01*
G75*
G02*
X249690000Y-118585000I0J250000D01*
G01*
G37*
G36*
G01*
X247790000Y-118585000D02*
X247790000Y-117635000D01*
G75*
G02*
X248040000Y-117385000I250000J0D01*
G01*
X248540000Y-117385000D01*
G75*
G02*
X248790000Y-117635000I0J-250000D01*
G01*
X248790000Y-118585000D01*
G75*
G02*
X248540000Y-118835000I-250000J0D01*
G01*
X248040000Y-118835000D01*
G75*
G02*
X247790000Y-118585000I0J250000D01*
G01*
G37*
%TD*%
%TO.C,C2*%
G36*
G01*
X229295000Y-123020001D02*
X229295000Y-120819999D01*
G75*
G02*
X229544999Y-120570000I249999J0D01*
G01*
X230195001Y-120570000D01*
G75*
G02*
X230445000Y-120819999I0J-249999D01*
G01*
X230445000Y-123020001D01*
G75*
G02*
X230195001Y-123270000I-249999J0D01*
G01*
X229544999Y-123270000D01*
G75*
G02*
X229295000Y-123020001I0J249999D01*
G01*
G37*
G36*
G01*
X226345000Y-123020001D02*
X226345000Y-120819999D01*
G75*
G02*
X226594999Y-120570000I249999J0D01*
G01*
X227245001Y-120570000D01*
G75*
G02*
X227495000Y-120819999I0J-249999D01*
G01*
X227495000Y-123020001D01*
G75*
G02*
X227245001Y-123270000I-249999J0D01*
G01*
X226594999Y-123270000D01*
G75*
G02*
X226345000Y-123020001I0J249999D01*
G01*
G37*
%TD*%
M02*
