%TF.GenerationSoftware,KiCad,Pcbnew,5.1.9*%
%TF.CreationDate,2021-04-08T17:50:56+05:30*%
%TF.ProjectId,protection,70726f74-6563-4746-996f-6e2e6b696361,rev?*%
%TF.SameCoordinates,Original*%
%TF.FileFunction,Paste,Bot*%
%TF.FilePolarity,Positive*%
%FSLAX46Y46*%
G04 Gerber Fmt 4.6, Leading zero omitted, Abs format (unit mm)*
G04 Created by KiCad (PCBNEW 5.1.9) date 2021-04-08 17:50:56*
%MOMM*%
%LPD*%
G01*
G04 APERTURE LIST*
G04 APERTURE END LIST*
%TO.C,D11*%
G36*
G01*
X191125000Y-112385000D02*
X189875000Y-112385000D01*
G75*
G02*
X189625000Y-112135000I0J250000D01*
G01*
X189625000Y-111385000D01*
G75*
G02*
X189875000Y-111135000I250000J0D01*
G01*
X191125000Y-111135000D01*
G75*
G02*
X191375000Y-111385000I0J-250000D01*
G01*
X191375000Y-112135000D01*
G75*
G02*
X191125000Y-112385000I-250000J0D01*
G01*
G37*
G36*
G01*
X191125000Y-115185000D02*
X189875000Y-115185000D01*
G75*
G02*
X189625000Y-114935000I0J250000D01*
G01*
X189625000Y-114185000D01*
G75*
G02*
X189875000Y-113935000I250000J0D01*
G01*
X191125000Y-113935000D01*
G75*
G02*
X191375000Y-114185000I0J-250000D01*
G01*
X191375000Y-114935000D01*
G75*
G02*
X191125000Y-115185000I-250000J0D01*
G01*
G37*
%TD*%
%TO.C,R10*%
G36*
G01*
X191125002Y-105972500D02*
X189874998Y-105972500D01*
G75*
G02*
X189625000Y-105722502I0J249998D01*
G01*
X189625000Y-105097498D01*
G75*
G02*
X189874998Y-104847500I249998J0D01*
G01*
X191125002Y-104847500D01*
G75*
G02*
X191375000Y-105097498I0J-249998D01*
G01*
X191375000Y-105722502D01*
G75*
G02*
X191125002Y-105972500I-249998J0D01*
G01*
G37*
G36*
G01*
X191125002Y-108897500D02*
X189874998Y-108897500D01*
G75*
G02*
X189625000Y-108647502I0J249998D01*
G01*
X189625000Y-108022498D01*
G75*
G02*
X189874998Y-107772500I249998J0D01*
G01*
X191125002Y-107772500D01*
G75*
G02*
X191375000Y-108022498I0J-249998D01*
G01*
X191375000Y-108647502D01*
G75*
G02*
X191125002Y-108897500I-249998J0D01*
G01*
G37*
%TD*%
%TO.C,R7*%
G36*
G01*
X216314998Y-106884440D02*
X217565002Y-106884440D01*
G75*
G02*
X217815000Y-107134438I0J-249998D01*
G01*
X217815000Y-107759442D01*
G75*
G02*
X217565002Y-108009440I-249998J0D01*
G01*
X216314998Y-108009440D01*
G75*
G02*
X216065000Y-107759442I0J249998D01*
G01*
X216065000Y-107134438D01*
G75*
G02*
X216314998Y-106884440I249998J0D01*
G01*
G37*
G36*
G01*
X216314998Y-103959440D02*
X217565002Y-103959440D01*
G75*
G02*
X217815000Y-104209438I0J-249998D01*
G01*
X217815000Y-104834442D01*
G75*
G02*
X217565002Y-105084440I-249998J0D01*
G01*
X216314998Y-105084440D01*
G75*
G02*
X216065000Y-104834442I0J249998D01*
G01*
X216065000Y-104209438D01*
G75*
G02*
X216314998Y-103959440I249998J0D01*
G01*
G37*
%TD*%
%TO.C,D9*%
G36*
G01*
X211445000Y-105775000D02*
X210195000Y-105775000D01*
G75*
G02*
X209945000Y-105525000I0J250000D01*
G01*
X209945000Y-104775000D01*
G75*
G02*
X210195000Y-104525000I250000J0D01*
G01*
X211445000Y-104525000D01*
G75*
G02*
X211695000Y-104775000I0J-250000D01*
G01*
X211695000Y-105525000D01*
G75*
G02*
X211445000Y-105775000I-250000J0D01*
G01*
G37*
G36*
G01*
X211445000Y-108575000D02*
X210195000Y-108575000D01*
G75*
G02*
X209945000Y-108325000I0J250000D01*
G01*
X209945000Y-107575000D01*
G75*
G02*
X210195000Y-107325000I250000J0D01*
G01*
X211445000Y-107325000D01*
G75*
G02*
X211695000Y-107575000I0J-250000D01*
G01*
X211695000Y-108325000D01*
G75*
G02*
X211445000Y-108575000I-250000J0D01*
G01*
G37*
%TD*%
M02*
